<?xml version="1.0" standalone="no"?>
<!DOCTYPE svg PUBLIC "-//W3C//DTD SVG 1.1//EN" "http://www.w3.org/Graphics/SVG/1.1/DTD/svg11.dtd" >
<svg xmlns="http://www.w3.org/2000/svg">
<metadata>Generated by IcoMoon</metadata>
<defs>
<font id="icomoon" horiz-adv-x="1024">
<font-face units-per-em="1024" ascent="960" descent="-64" />
<missing-glyph horiz-adv-x="1024" />
<glyph unicode="&#x20;" horiz-adv-x="512" d="" />
<glyph unicode="&#xe900;" glyph-name="youtube_icon-1" d="M322.112 384.672h32.192v-159.968h31.136v159.968h32.16v27.232h-95.488zM513.216 517.6c4.224 0 7.584 1.12 10.048 3.424 2.464 2.368 3.744 5.568 3.744 9.632v82.912c0 3.328-1.28 6.048-3.808 8.032-2.56 2.080-5.856 3.104-9.984 3.104-3.776 0-6.848-1.024-9.248-3.104-2.368-2.016-3.52-4.736-3.52-8.032v-82.912c0-4.16 1.088-7.36 3.328-9.632 2.176-2.304 5.376-3.424 9.44-3.424zM581.824 364.48c-4.288 0-8.544-1.088-12.736-3.296-4.128-2.176-8.096-5.44-11.808-9.632v60.32h-27.904v-187.2h27.904v10.592c3.584-4.256 7.552-7.36 11.776-9.408 4.192-2.016 9.024-3.008 14.464-3.008 8.16 0 14.464 2.592 18.72 7.808 4.32 5.248 6.528 12.736 6.528 22.496v76.64c0 11.328-2.304 19.936-6.944 25.792-4.576 5.888-11.264 8.864-20 8.864zM580.288 256.992c0-4.448-0.8-7.584-2.4-9.504-1.6-1.984-4.064-2.912-7.456-2.912-2.336 0-4.512 0.512-6.656 1.472-2.112 0.96-4.32 2.624-6.528 4.864v86.048c1.888 1.92 3.776 3.36 5.664 4.224 1.888 0.96 3.872 1.376 5.856 1.376 3.712 0 6.592-1.184 8.608-3.552 1.92-2.432 2.88-5.952 2.88-10.656v-71.36zM480.96 257.856c-2.592-2.976-5.44-5.408-8.544-7.36-3.104-1.92-5.696-2.88-7.68-2.88-2.624 0-4.48 0.704-5.664 2.176-1.12 1.44-1.728 3.808-1.728 7.072v105.984h-27.584v-115.52c0-8.256 1.632-14.336 4.832-18.528 3.296-4.096 8.032-6.144 14.432-6.144 5.184 0 10.56 1.408 16.064 4.384 5.504 3.008 10.816 7.232 15.904 12.8v-15.136h27.616v138.112h-27.616v-104.928zM512 866.88c-245.632 0-444.768-199.136-444.768-444.768 0-245.696 199.136-444.768 444.768-444.768s444.768 199.104 444.768 444.768c0 245.632-199.168 444.768-444.768 444.768zM583.872 647.232h31.040v-116.672c0-3.616 0.704-6.208 2.016-7.808 1.28-1.632 3.392-2.464 6.336-2.464 2.272 0 5.152 1.088 8.672 3.2 3.456 2.176 6.656 4.896 9.568 8.256v115.456h31.136v-152.16h-31.136v16.8c-5.664-6.176-11.648-10.912-17.888-14.144-6.176-3.2-12.16-4.864-18.016-4.864-7.2 0-12.576 2.304-16.256 6.848-3.584 4.48-5.44 11.264-5.44 20.384v127.136zM468.448 612.416c0 11.744 4.16 21.12 12.512 28.192 8.384 6.912 19.648 10.432 33.76 10.432 12.864 0 23.392-3.712 31.648-11.040 8.192-7.328 12.288-16.864 12.288-28.512v-78.56c0-13.056-4.032-23.232-12.032-30.624-8.096-7.36-19.168-11.072-33.312-11.072-13.568 0-24.48 3.808-32.64 11.392-8.16 7.68-12.256 17.984-12.256 30.912v78.848zM383.776 701.28l22.72-82.4h2.208l21.632 82.4h35.552l-40.704-120.704v-85.568h-35.008v81.76l-41.664 124.512h35.264zM790.88 267.2c0-55.040-44.64-99.712-99.68-99.712h-346.368c-55.072 0-99.712 44.672-99.712 99.712v80.16c0 55.072 44.64 99.712 99.712 99.712h346.368c55.040 0 99.68-44.64 99.68-99.712v-80.16zM665.184 366.208c-12.384 0-22.4-3.744-30.24-11.328-7.808-7.52-11.744-17.312-11.744-29.216v-62.112c0-13.344 3.584-23.776 10.688-31.328 7.104-7.584 16.832-11.392 29.216-11.392 13.76 0 24.096 3.552 30.976 10.688 6.976 7.2 10.4 17.856 10.4 32.032v7.104h-28.384v-6.272c0-8.16-0.96-13.408-2.752-15.776s-4.992-3.552-9.6-3.552c-4.416 0-7.52 1.376-9.344 4.16-1.792 2.848-2.688 7.872-2.688 15.168v25.984h52.768v35.264c0 13.056-3.36 23.072-10.144 30.080-6.816 6.976-16.544 10.464-29.184 10.464zM676.096 311.904h-24.384v13.952c0 5.792 0.896 9.984 2.816 12.384 1.92 2.592 5.088 3.808 9.472 3.808 4.16 0 7.296-1.216 9.184-3.808 1.888-2.4 2.88-6.592 2.88-12.384v-13.952z" />
<glyph unicode="&#xe901;" glyph-name="youtube_icon-2" d="M530.016 768c130.592 0 237.408-2.208 336.192-6.592h2.784c46.208 0 84-44 84-98.208v-2.208l0.192-2.208c4.608-68 6.784-138.592 6.784-209.792v0 0c0.192-71.2-2.208-141.792-6.784-209.792l-0.192-2.208v-2.208c0-27.616-9.408-53.216-26.784-72.192-15.616-17.216-36-26.784-57.216-26.784h-3.2c-105.792-4.992-217.6-7.616-332.8-7.616-7.008 0-14.208 0-21.184 0v0c-7.2 0-14.4 0-21.6 0-115.584 0-227.392 2.592-332.384 7.392h-3.2c-21.184 0-41.408 9.6-56.992 26.784-17.216 19.008-26.784 44.608-26.784 72.192v2.208l-0.192 2.208c-4.8 68.192-7.008 138.784-6.592 209.408v0.384c-0.192 70.592 2.016 140.992 6.592 209.184l0.192 2.208v2.208c0 54.4 37.6 98.592 83.808 98.592h2.816c99.008 4.608 205.792 6.592 336.384 6.592h36.192zM530.016 832c-6.016 0-12 0-18.016 0s-12 0-18.016 0c-115.2 0-228.384-1.6-339.2-6.592-81.6 0-147.808-72.608-147.808-162.592-4.992-71.584-7.2-142.816-7.008-214.208-0.192-71.392 1.792-142.592 6.784-214.016 0-90.016 66.208-163.2 147.808-163.2 109.6-5.216 221.408-7.616 335.616-7.616 7.2 0 14.592 0 21.792 0s14.4 0 21.408 0c114.208 0 226.016 2.4 335.808 7.616 81.792 0 148 73.216 148 163.2 4.8 71.392 7.008 142.784 6.784 214.208 0.192 71.392-2.016 142.592-6.784 214.208 0 90.016-66.208 162.208-148 162.208-110.784 5.184-223.808 6.784-339.2 6.784v0zM414.016 252.384v392.8l290.016-196.416-290.016-196.384z" />
<glyph unicode="&#xe904;" glyph-name="youtube_icon-4" d="M321.088 396.128h32.96v-166.56h31.872v166.56h32.96v28.288h-97.792zM483.744 264.16c-2.688-3.104-5.568-5.664-8.8-7.68-3.168-2.048-5.824-3.040-7.904-3.040-2.624 0-4.576 0.768-5.824 2.272-1.152 1.536-1.728 3.968-1.728 7.392v110.272h-28.256v-120.192c0-8.576 1.696-14.944 4.96-19.232 3.36-4.32 8.224-6.4 14.784-6.4 5.28 0 10.752 1.504 16.448 4.576 5.664 3.008 11.072 7.488 16.32 13.312v-15.776h28.256v143.776h-28.256v-109.28zM587.008 375.104c-4.384 0-8.736-1.12-13.056-3.424-4.256-2.24-8.256-5.6-12.128-10.016v62.752h-28.576v-194.88h28.576v11.040c3.68-4.416 7.744-7.648 12.064-9.728 4.32-2.112 9.216-3.104 14.784-3.104 8.384 0 14.848 2.656 19.2 8.096 4.416 5.44 6.656 13.216 6.656 23.392v79.776c0 11.776-2.304 20.736-7.104 26.88-4.64 6.144-11.456 9.216-20.416 9.216zM585.504 263.264c0-4.64-0.864-7.904-2.496-9.888-1.632-2.048-4.16-3.040-7.616-3.040-2.4 0-4.64 0.512-6.816 1.568-2.176 0.992-4.416 2.784-6.72 5.056v89.568c1.952 1.984 3.872 3.456 5.824 4.384 1.984 0.96 3.936 1.376 5.984 1.376 3.776 0 6.752-1.248 8.832-3.744 2.016-2.496 3.008-6.208 3.008-11.040 0 0 0-74.24 0-74.24zM507.904 570.912c4.32 0 7.712 1.216 10.272 3.584 2.528 2.464 3.808 5.824 3.808 10.016v86.336c0 3.456-1.28 6.272-3.904 8.416-2.592 2.112-5.984 3.168-10.176 3.168-3.904 0-7.072-1.024-9.472-3.168s-3.648-4.96-3.648-8.416v-86.272c0-4.32 1.184-7.648 3.424-10.080s5.44-3.584 9.696-3.584zM512 960c-282.752 0-512-229.216-512-512s229.248-512 512-512 512 229.248 512 512-229.248 512-512 512zM580.224 705.856h31.776v-121.408c0-3.744 0.736-6.464 2.048-8.128 1.28-1.696 3.488-2.528 6.464-2.528 2.304 0 5.28 1.12 8.864 3.328 3.552 2.208 6.848 5.056 9.792 8.544v120.192h31.84v-158.368h-31.84v17.472c-5.824-6.432-11.904-11.392-18.304-14.72-6.336-3.36-12.48-5.056-18.496-5.056-7.392 0-12.896 2.368-16.64 7.072-3.712 4.704-5.568 11.776-5.568 21.248v132.352h0.064zM462.016 669.632c0 12.288 4.256 22.048 12.864 29.312 8.544 7.264 20.096 10.912 34.528 10.912 13.152 0 23.968-3.84 32.384-11.52 8.384-7.648 12.608-17.536 12.608-29.6v-81.824c0-13.536-4.128-24.16-12.352-31.872-8.32-7.712-19.616-11.552-34.112-11.552-13.888 0-25.056 3.968-33.44 11.904-8.32 7.968-12.48 18.688-12.48 32.128v82.112zM375.328 762.176l23.264-85.792h2.24l22.112 85.792h36.448l-41.696-125.6v-89.088h-35.84v85.056l-42.656 129.6c-0.032 0.032 36.128 0.032 36.128 0.032zM730.752 186.56c-23.232-23.168-218.848-23.68-218.848-23.68s-195.648 0.48-218.912 23.68c-23.296 23.264-23.328 137.696-23.328 138.56 0 0.672 0.064 115.328 23.328 138.56 23.296 23.2 218.912 23.488 218.912 23.456s195.648-0.288 218.848-23.488c23.296-23.264 23.584-137.888 23.584-138.56 0 0.032-0.192-115.2-23.584-138.528zM672.352 376.896c-12.672 0-22.976-3.904-30.944-11.776-8-7.872-12-18.016-12-30.496v-64.544c0-13.888 3.712-24.736 10.944-32.64 7.264-7.936 17.28-11.84 29.888-11.84 14.080 0 24.672 3.712 31.712 11.104 7.136 7.52 10.624 18.592 10.624 33.376v7.36h-29.056v-6.56c0-8.48-0.992-13.952-2.848-16.416s-5.12-3.712-9.824-3.712c-4.544 0-7.68 1.408-9.6 4.352-1.824 2.944-2.784 8.192-2.784 15.776v27.040h54.048v36.672c0 13.632-3.456 24.096-10.368 31.36-6.88 7.296-16.864 10.944-29.792 10.944zM683.52 320.384h-24.992v14.496c0 6.016 0.96 10.336 2.912 12.864 1.984 2.688 5.216 3.936 9.728 3.936 4.288 0 7.488-1.248 9.376-3.936 2.016-2.528 3.008-6.848 3.008-12.864v-14.496h-0.032z" />
<glyph unicode="&#xe905;" glyph-name="youtube_icon-5" d="M512 701.696c1.856 0 183.36 0 303.2-8.64l5.28-0.48c16-1.44 33.28-3.136 50.24-20.64v0 0c8-8 17.12-36.32 20.256-56.576 4.8-39.808 7.712-86.24 8-133.28v-66.336c-0.32-47.488-3.2-93.952-8.544-139.648l0.544 5.888c-2.976-19.744-12.32-48.48-20.16-56v0 0c-16.864-17.44-34.56-19.136-50.144-20.64l-5.44-0.544c-117.76-8-295.136-8.8-303.136-8.8-9.184 0-224 2.144-292.576 8-4.096 0.64-8 1.216-12.64 1.664-18.24 2.144-38.976 4.64-53.856 20.096v0 0c-8 8-17.12 36.256-20.16 56.384-4.8 39.808-7.712 86.24-8 133.28v65.696c0.32 47.456 3.2 93.888 8.576 139.552l-0.576-5.888c3.136 20.384 12.416 48.704 20.256 56.576v0 0c16.96 17.504 34.624 19.136 50.24 20.64l5.28 0.48c120 8.576 301.376 8.64 303.136 8.64h0.256zM512 753.12v0s-184.736 0-307.84-8.8c-17.184-2.016-54.624-2.144-88-36.704-26.304-26.4-34.976-86.336-34.976-86.336-5.28-41.472-8.608-90.112-9.184-139.36v-66.72c0.416-50.048 3.616-98.912 9.408-146.944l-0.608 6.208s8.576-59.904 34.944-86.24c33.536-34.56 77.44-33.504 97.024-37.216 70.4-6.624 299.2-8.736 299.2-8.736s184.864 0 308.064 9.024c17.216 2.016 54.72 2.24 88 36.8 26.336 26.336 34.976 86.24 34.976 86.24 5.248 41.76 8.48 90.592 8.96 140.064v66.56c-0.416 50.080-3.616 98.912-9.408 146.944l0.608-6.208s-8.544 59.936-34.976 86.304c-33.44 34.56-70.976 34.816-88 36.704-123.36 8.864-308.256 8.864-308.256 8.864zM433.056 579.136v-262.24l223.936 131.136-223.904 131.136z" />
<glyph unicode="&#xe906;" glyph-name="youtube_icon" d="M793.12 450.464h-562.272c-89.376 0-161.824-72.512-161.824-161.888v-130.080c0-89.344 72.448-161.856 161.824-161.856h562.272c89.344 0 161.824 72.512 161.824 161.856v130.080c0 89.344-72.48 161.888-161.824 161.888zM348.992 349.216h-52.256v-259.744h-50.496v259.744h-52.224v44.192h155.008v-44.192zM496.672 89.472h-44.8v24.576c-8.32-9.088-16.896-16.032-25.856-20.704-8.96-4.864-17.6-7.168-26.016-7.168-10.4 0-18.144 3.296-23.424 10.016-5.216 6.688-7.872 16.64-7.872 30.048v187.424h44.8v-172c0-5.312 0.992-9.12 2.784-11.488 1.92-2.432 4.992-3.552 9.216-3.552 3.264 0 7.456 1.568 12.48 4.704 5.088 3.168 9.696 7.168 13.92 12.064v170.304h44.8v-224.256zM659.296 135.776c0-15.84-3.52-28-10.56-36.512-6.976-8.48-17.216-12.672-30.464-12.672-8.8 0-16.64 1.6-23.456 4.864-6.848 3.264-13.28 8.256-19.168 15.2v-17.184h-45.344v303.904h45.344v-97.888c6.080 6.784 12.48 12.032 19.168 15.552 6.848 3.584 13.728 5.312 20.704 5.312 14.176 0 24.992-4.736 32.448-14.272 7.52-9.568 11.264-23.552 11.264-41.888v-124.416zM814.688 196.192h-85.728v-42.24c0-11.776 1.44-19.968 4.384-24.544 3.008-4.576 8.032-6.816 15.2-6.816 7.456 0 12.576 1.92 15.584 5.792 2.88 3.904 4.448 12.384 4.448 25.568v10.208h46.112v-11.52c0-22.976-5.568-40.288-16.896-51.968-11.136-11.584-27.936-17.312-50.272-17.312-20.096 0-35.936 6.112-47.456 18.432-11.456 12.256-17.312 29.248-17.312 50.848v100.704c0 19.392 6.4 35.328 19.104 47.552 12.672 12.224 28.96 18.336 49.024 18.336 20.544 0 36.32-5.664 47.296-16.992s16.512-27.616 16.512-48.864v-57.152zM748.96 280.032c-7.168 0-12.256-2.016-15.36-6.208-3.168-3.936-4.672-10.688-4.672-20.096v-22.656h39.616v22.656c0 9.408-1.6 16.16-4.736 20.096-3.008 4.16-8.064 6.208-14.88 6.208zM594.4 280.8c-3.168 0-6.4-0.704-9.472-2.176-3.136-1.44-6.208-3.808-9.248-6.88v-139.68c3.584-3.616 7.168-6.4 10.624-7.968 3.456-1.536 7.040-2.4 10.848-2.4 5.504 0 9.504 1.6 12.096 4.8 2.56 3.168 3.84 8.256 3.84 15.424v115.808c0 7.616-1.504 13.344-4.704 17.248-3.296 3.872-7.936 5.824-13.984 5.824zM304.48 528.352h56.8v138.912l66.112 195.936h-57.728l-35.136-133.856h-3.584l-36.896 133.856h-57.216l67.648-202.176zM504.352 522.112c22.944 0 40.928 6.016 54.048 18.048 13.024 12.096 19.552 28.576 19.552 49.696v127.584c0 18.816-6.656 34.272-19.936 46.208-13.376 11.904-30.496 17.888-51.36 17.888-22.944 0-41.184-5.664-54.784-16.992-13.536-11.328-20.352-26.528-20.352-45.728v-128.032c0-20.992 6.624-37.632 19.872-50.080 13.248-12.416 30.944-18.624 52.992-18.624zM483.424 720.736c0 5.376 1.92 9.696 5.696 13.088 3.904 3.328 8.896 4.928 15.072 4.928 6.656 0 12.064-1.6 16.192-4.928 4.096-3.392 6.144-7.744 6.144-13.088v-134.592c0-6.592-2.016-11.84-6.080-15.616-4.032-3.808-9.44-5.664-16.256-5.664-6.656 0-11.808 1.792-15.424 5.6-3.552 3.712-5.376 8.896-5.376 15.68v134.56zM654.112 524.736c9.472 0 19.232 2.72 29.248 7.904 10.144 5.28 19.84 12.992 29.056 23.040v-27.36h50.432v247.008h-50.432v-187.488c-4.704-5.376-9.92-9.76-15.52-13.28-5.696-3.456-10.4-5.216-14.112-5.216-4.736 0-8.224 1.312-10.272 4-2.080 2.592-3.264 6.816-3.264 12.608v189.376h-50.368v-206.432c0-14.72 2.976-25.728 8.8-33.024 5.952-7.392 14.656-11.136 26.4-11.136z" />
<glyph unicode="&#xe907;" glyph-name="youtube_icon-6" d="M512 960c282.592 0 512-229.408 512-512s-229.408-512-512-512c-282.592 0-512 229.408-512 512s229.408 512 512 512zM818.624 602.048c-7.36 27.552-29.056 49.216-56.576 56.576-49.92 13.376-250.048 13.376-250.048 13.376s-200.128 0-250.048-13.376c-27.52-7.36-49.216-29.056-56.576-56.576-13.376-49.92-13.376-154.048-13.376-154.048s0-104.128 13.376-154.048c7.36-27.552 29.056-49.216 56.576-56.576 49.92-13.376 250.048-13.376 250.048-13.376s200.128 0 250.048 13.376c27.552 7.36 49.216 29.056 56.576 56.576 13.376 49.92 13.376 154.048 13.376 154.048s0 104.128-13.376 154.048zM448 352v192l166.272-96-166.272-96z" />
<glyph unicode="&#xe908;" glyph-name="youtube_icon-7" d="M898.88 960c69.056 0 125.12-56.064 125.12-125.12v-773.792c0-69.056-56.064-125.12-125.12-125.12h-773.792c-69.056 0-125.12 56.064-125.12 125.12v773.792c0 69.056 56.064 125.12 125.12 125.12h773.792zM856.96 608.736c-8.288 30.976-32.672 55.36-63.648 63.648-56.16 15.040-281.312 15.040-281.312 15.040s-225.152 0-281.312-15.040c-30.976-8.288-55.36-32.672-63.648-63.648-15.040-56.16-15.040-173.312-15.040-173.312s0-117.152 15.040-173.28c8.288-30.976 32.672-55.392 63.648-63.648 56.16-15.040 281.312-15.040 281.312-15.040s225.152 0 281.312 15.040c30.976 8.288 55.36 32.672 63.648 63.648 15.040 56.16 15.040 173.312 15.040 173.312s0 117.152-15.040 173.312zM440 327.424v216l187.072-108-187.072-108z" />
<glyph unicode="&#xe909;" glyph-name="youtube_icon-8" d="M1017.216 662.4c0 90.016-66.208 162.4-148 162.4-110.784 5.184-223.808 7.2-339.2 7.2-6.016 0-12 0-18.016 0s-12 0-18.016 0c-115.2 0-228.384-2.016-339.2-7.2-81.6 0-147.808-72.8-147.808-162.784-4.992-71.2-7.2-142.4-7.008-213.6-0.192-71.2 2.016-142.4 6.784-213.792 0-90.016 66.208-163.008 147.808-163.008 116.384-5.408 235.808-7.808 357.184-7.616 121.6-0.384 240.608 2.016 357.184 7.616 81.792 0 148 72.992 148 163.008 4.8 71.392 7.008 142.592 6.784 214.016 0.416 71.2-1.792 142.4-6.592 213.792zM414.016 252.192v392.992l290.016-196.384-290.016-196.608z" />
<glyph unicode="&#xe90a;" glyph-name="youtube_icon-9" d="M442.56 343.712l173.824 104.288-173.824 104.288zM512 960c-282.752 0-512-229.216-512-512s229.248-512 512-512 512 229.248 512 512-229.248 512-512 512zM790.016 425.568c0-48-5.568-96-5.568-96s-5.44-40.896-22.080-58.848c-21.152-23.616-44.832-23.744-55.712-25.152-77.824-5.952-194.656-6.144-194.656-6.144s-144.576 1.408-189.056 5.952c-12.384 2.464-40.128 1.76-61.312 25.344-16.672 17.984-22.080 58.848-22.080 58.848s-5.568 47.968-5.568 96v44.992c0 48 5.568 95.968 5.568 95.968s5.44 40.896 22.080 58.912c21.152 23.648 44.832 23.776 55.712 25.12 77.792 6.016 194.528 6.016 194.528 6.016h0.256c0 0 116.736 0 194.528-6.016 10.848-1.344 34.56-1.472 55.712-25.088 16.672-18.016 22.080-58.912 22.080-58.912s5.568-48 5.568-96v-44.992z" />
<glyph unicode="&#xe90b;" glyph-name="youtube_icon-10" d="M994.144 648.544c0 8.544-12.8 76.8-42.656 106.656-38.4 42.656-81.056 46.944-102.4 46.944h-4.256c-132.256 8.544-328.544 8.544-332.8 8.544 0 0-200.544 0-332.8-8.544h-4.256c-21.344 0-64-4.256-102.4-46.944-29.856-34.144-42.656-102.4-42.656-110.944 0-4.256-8.544-81.056-8.544-162.144v-72.544c0-81.056 8.544-157.856 8.544-162.144 0-8.544 12.8-76.8 42.656-106.656 34.144-38.4 76.8-42.656 102.4-46.944 4.256 0 8.544 0 12.8 0 76.8-8.544 311.456-8.544 320-8.544 0 0 0 0 0 0s200.544 0 332.8 8.544h4.256c21.344 4.256 64 8.544 102.4 46.944 29.856 34.144 42.656 102.4 42.656 110.944 0 4.256 8.544 81.056 8.544 162.144v72.544c4.256 76.8-4.256 157.856-4.256 162.144zM678.4 439.456l-256-136.544c-4.256 0-4.256-4.256-8.544-4.256s-8.544 0-8.544 4.256-8.544 8.544-8.544 17.056v277.344c0 8.544 4.256 12.8 8.544 17.056s12.8 4.256 21.344 0l256-136.544c8.544-4.256 12.8-8.544 12.8-17.056s-8.544-17.056-17.056-21.344z" />
<glyph unicode="&#xe90c;" glyph-name="yelp_icon-1" d="M776.544 25.6c-25.6 0-51.2 25.6-55.456 34.144l-132.256 204.8c-8.544 17.056-17.056 51.2 4.256 72.544 12.8 8.544 25.6 17.056 42.656 17.056 8.544 0 17.056 0 17.056 0l243.2-72.544c17.056-4.256 51.2-17.056 51.2-46.944 0-21.344-12.8-38.4-12.8-42.656l-102.4-140.8c0 0-4.256-4.256-4.256-4.256-4.256-4.256-25.6-21.344-51.2-21.344zM635.744 311.456c-4.256 0-8.544 0-12.8-4.256s0-17.056 0-21.344l128-200.544c4.256-8.544 17.056-17.056 21.344-17.056 8.544 0 17.056 4.256 21.344 8.544l102.4 132.256c0 4.256 4.256 12.8 4.256 21.344 0 0-8.544 4.256-17.056 4.256l-243.2 72.544c4.256 4.256 0 4.256-4.256 4.256zM631.456 388.256c-25.6 0-42.656 8.544-55.456 25.6-12.8 21.344-8.544 46.944 0 59.744l136.544 200.544c0 0 17.056 34.144 51.2 34.144 34.144-4.256 51.2-25.6 51.2-29.856l115.2-123.744c0 0 4.256-4.256 4.256-4.256 0-4.256 12.8-29.856 8.544-51.2-8.544-25.6-42.656-38.4-51.2-42.656l-243.2-68.256c0 4.256-8.544 0-17.056 0zM614.4 452.256c0 0-4.256-8.544 0-12.8 0-4.256 8.544-4.256 17.056-4.256 4.256 0 8.544 0 8.544 0l238.944 64c8.544 4.256 21.344 12.8 21.344 17.056s0 12.8-4.256 17.056l-115.2 123.744c4.256 4.256-4.256 8.544-12.8 12.8 0 0 0 0 0 0-8.544 0-17.056-8.544-17.056-12.8l-136.544-204.8c0 0 0 0 0 0zM477.856 465.056v0c-29.856 0-51.2 17.056-51.2 21.344l-213.344 268.8c0 4.256-38.4 42.656-12.8 81.056 12.8 21.344 38.4 29.856 42.656 29.856l204.8 72.544c8.544 4.256 34.144 4.256 59.744-8.544 25.6-17.056 34.144-59.744 34.144-68.256v-324.256c-4.256-21.344-17.056-59.744-51.2-68.256-4.256-4.256-8.544-4.256-12.8-4.256zM456.544 516.256c0 0 8.544-8.544 21.344-8.544v0c0 0 4.256 0 4.256 0 12.8 4.256 17.056 25.6 17.056 25.6l-4.256 320c0 12.8-8.544 29.856-12.8 34.144-17.056 12.8-21.344 8.544-25.6 4.256-4.256 0-4.256 0-8.544 0l-196.256-68.256c-4.256 0-12.8-4.256-21.344-12.8 0-4.256 8.544-17.056 17.056-25.6l209.056-268.8c0 0 0 0 0 0zM128 256v0c-25.6 0-34.144 12.8-42.656 21.344-8.544 17.056-8.544 46.944-8.544 55.456l12.8 157.856c0 21.344 21.344 38.4 34.144 46.944 21.344 12.8 64 0 64-4.256l217.6-102.4c4.256 0 46.944-21.344 42.656-59.744 0-38.4-25.6-51.2-34.144-55.456-4.256 0-8.544-4.256-8.544-4.256l-251.744-51.2c0 0 0 0 0 0 4.256 0-12.8-4.256-25.6-4.256zM123.744 298.656c4.256 0 17.056 0 21.344 4.256l251.744 51.2c0 0 4.256 0 4.256 4.256 8.544 4.256 8.544 4.256 8.544 17.056 0 8.544-12.8 17.056-21.344 21.344l-217.6 102.4c-4.256 0-12.8 4.256-25.6 4.256-4.256 0-4.256 0-4.256 0-8.544-4.256-12.8-8.544-12.8-12.8l-12.8-162.144c4.256-12.8 4.256-25.6 8.544-29.856 0 0 0 0 0 0zM477.856-42.656c-12.8 0-21.344 0-21.344 0l-170.656 51.2c-21.344 8.544-34.144 21.344-38.4 42.656-12.8 25.6 8.544 55.456 12.8 64l170.656 174.944c4.256 4.256 25.6 21.344 51.2 21.344 8.544 0 17.056 0 21.344-4.256 25.6-12.8 34.144-38.4 34.144-51.2l-4.256-234.656c4.256-21.344-4.256-51.2-34.144-59.744-8.544-4.256-12.8-4.256-21.344-4.256zM465.056 0c0 0 21.344 0 25.6 0 0 0 4.256 8.544 4.256 17.056l4.256 238.944c0 0 0 0 0 0s0 8.544-8.544 12.8c-12.8 0-21.344-4.256-25.6-8.544l-166.4-170.656c-4.256-4.256-12.8-17.056-8.544-21.344 4.256-8.544 8.544-12.8 12.8-12.8l162.144-55.456c0 0 0 0 0 0z" />
<glyph unicode="&#xe90d;" glyph-name="yelp_icon-2" horiz-adv-x="864" d="M121.312 789.216c2.88-4.352 6.016-8.512 9.184-12.672l205.216-272.896c1.728-2.24 3.552-4.448 5.728-6.368 9.824-8.608 20.608-14.304 32-16.96 5.952-1.376 11.392-2.016 16.448-2.016 20.096 0 33.152 9.792 41.024 19.072 12.64 14.912 19.264 32.736 19.168 51.488-0.288 67.456-0.704 134.944-1.088 202.4l-0.704 119.040c-0.032 9.632-1.088 18.528-3.168 27.168v0c-2.208 9.088-5.6 20.928-12.448 32-2.816 4.576-7.488 11.2-15.36 16.192-8.416 5.28-16.608 9.12-25.088 11.712l-6.624 1.92-20.416 0.704-2.528-2.048c-9.888-2.656-19.2-6.112-28.224-9.472l-7.264-2.688c-57.728-20.864-115.424-41.792-173.12-62.72-12.96-4.672-24.096-11.936-32.992-21.568-11.488-12.384-15.584-27.808-11.808-44.64 2.112-9.472 6.176-18.784 12.064-27.68zM148.32 836.224c4.928 5.312 10.912 9.184 18.4 11.872 57.696 20.928 115.392 41.824 173.12 62.72l7.52 2.784c9.632 3.584 18.752 6.976 27.968 9.184l6.080-1.024c5.248-1.6 10.496-4.064 16.064-7.584 0.992-0.64 2.176-2.048 3.552-4.256 4.064-6.56 6.272-14.4 7.904-21.184 1.408-5.824 2.112-11.936 2.144-18.656l0.704-119.072c0.416-67.456 0.8-134.88 1.088-202.336 0.032-9.92-3.424-19.104-10.336-27.296-3.584-4.192-8.512-7.712-20.64-4.896-5.472 1.28-10.688 4.128-16.64 9.728l-205.12 272.768c-2.688 3.52-5.344 7.040-7.776 10.72-3.424 5.152-5.632 10.176-6.784 15.296-1.248 5.504 0.16 8.352 2.784 11.2zM349.44 316.928c5.824 4.416 10.24 10.4 13.536 18.272 2.88 6.912 3.872 13.632 4.64 19.040 2.56 17.248-2.592 33.44-14.88 46.88-7.616 8.288-16.672 15.040-26.976 20.16l-31.872 15.712c-59.936 29.568-119.904 59.168-179.936 88.576-12.864 6.304-27.168 9.632-42.496 9.92v0c-9.504 0.032-17.312-1.696-24.192-5.696-10.528-6.176-18.976-14.24-25.12-23.968-4.288-6.816-6.752-14.048-7.36-21.44-0.768-9.92-1.6-19.84-2.432-29.76l-11.072-130.656-1.28-26.304 2.912-14.624c0.8-3.84 1.664-7.648 2.88-11.328 4.096-12.32 13.664-21.024 26.912-24.48 4.8-1.28 9.76-1.92 14.912-1.92 4.352 0 8.896 0.448 13.632 1.376 3.648 0.704 7.232 1.6 10.816 2.528 2.080 0.544 4.16 1.088 6.176 1.536l81.92 17.696c53.696 11.552 107.36 23.136 161.056 34.784 9.6 2.080 18.848 6.56 28.192 13.728zM152.384 304.8l-55.808-12.032c-8.768-1.888-17.568-3.744-26.368-5.728-2.496-0.576-4.992-1.184-7.456-1.856-2.784-0.736-5.568-1.44-8.416-1.984-4.8-0.928-8.736-0.896-13.216 0.256-0.8 2.368-1.248 4.8-1.792 7.232l-2.112 9.216v14.432c0.48 1.664 1.056 3.936 1.312 6.592l10.912 130.624c0.832 10.016 1.696 20 2.464 30.016 0.064 0.864 0.32 2.272 1.728 4.544 2.976 4.704 7.040 8.512 12.384 11.648 0.448 0.256 1.504 0.768 4.8 0.608 9.856-0.192 18.88-2.24 26.848-6.144 60-29.408 119.904-58.976 179.84-88.512l31.84-15.712c6.144-3.040 11.552-7.072 16.032-11.936 4.768-5.216 6.432-10.112 5.504-16.352-0.576-3.872-1.088-7.552-2.176-10.144-0.992-2.4-1.664-2.944-1.728-2.976-5.024-3.84-9.344-6.080-13.568-6.976-53.664-11.648-107.328-23.2-160.992-34.784zM855.904 226.176c-5.76 21.28-24.032 29.216-30.080 31.84-3.232 1.408-6.656 2.528-10.048 3.584l-2.048 0.64c-1.536 0.48-3.104 0.896-4.672 1.28l-236.736 74.112c-11.584 3.584-23.52 3.968-35.52 1.12-21.056-4.96-36.288-21.024-38.784-40.864-2.080-16.64 1.28-32.736 9.728-46.528l59.104-96.384c21.184-34.528 42.368-69.056 63.52-103.584 6.688-10.944 15.296-20.544 26.272-29.28 3.648-2.912 7.68-5.44 11.744-7.712 6.912-3.84 14.272-5.792 21.984-5.792 2.656 0 5.376 0.224 8.096 0.704 11.872 2.048 23.296 6.912 34.976 14.976 3.648 2.528 6.976 5.792 9.728 9.568l96.032 133.728c6.944 9.632 12 20.832 15.488 34.176 0.48 1.888 0.832 3.808 1.504 7.488l0.352 12.064-0.64 4.832zM819.264 213.856c-0.16-0.896-0.288-1.792-0.512-2.688-2.336-8.96-5.408-15.936-9.696-21.856l-96.736-134.464c-7.2-4.928-13.568-7.776-20.096-8.864-2.24-0.384-3.872-0.128-5.76 0.96-2.272 1.248-4.544 2.624-6.56 4.224-7.52 6.016-13.344 12.448-17.728 19.616-21.152 34.56-42.336 69.12-63.552 103.648l-59.072 96.32c-4.128 6.752-5.6 14.080-4.544 22.496 0.544 4.416 4.48 7.904 10.464 9.344 2.464 0.576 4.896 0.896 7.264 0.896 2.912 0 5.728-0.448 8.576-1.312l234.4-73.472c1.408-0.448 2.816-0.8 4.224-1.152l4.736-1.408c2.144-0.672 4.32-1.312 6.368-2.208l0.032-0.032c5.472-2.368 7.488-4.32 8.32-5.76l-0.128-4.256zM395.776 294.272c-18.144-1.504-34.208-9.152-46.4-22.176-54.592-58.24-108.896-116.672-163.168-175.136-10.496-11.296-18.016-25.152-22.368-41.216-2.336-8.576-2.336-16.32-0.064-23.648 2.656-8.704 6.272-15.968 11.008-22.112 7.776-10.112 17.536-17.024 28.992-20.544 51.040-15.808 102.080-31.52 153.152-47.168 4.896-1.504 9.888-2.752 14.848-4l6.304-1.6 25.28-0.608 4.16 0.384 2.080 0.704c16.384 2.656 28.448 12.928 33.952 28.992 2.432 7.040 3.68 14.432 3.68 21.984l-0.032 6.528c-0.032 3.008-0.064 6.016-0.032 8.992l1.984 126.592c0.576 35.776 1.152 71.552 1.568 107.328 0.192 15.616-5.504 29.952-16.416 41.408-10.656 11.232-24.096 16.608-38.592 15.36zM413.6 237.952c-0.416-35.712-0.992-71.424-1.568-107.168l-1.984-126.688c-0.032-3.296 0-6.624 0.032-9.92l0.032-6.112c0-3.392-0.544-6.688-1.632-9.856-1.248-3.616-2.368-4.096-4.736-4.416-1.184-0.16-2.24-0.352-3.168-0.608h-15.392l-4.288 1.12c-4.352 1.088-8.736 2.176-13.024 3.52-51.040 15.648-102.080 31.36-153.12 47.136-4.032 1.248-7.456 3.744-10.496 7.68-2.016 2.624-3.584 5.888-4.96 10.4 0 0-0.192 0.736 0.416 2.944 2.784 10.176 7.392 18.816 13.76 25.664 54.24 58.432 108.512 116.832 163.040 175.040 5.888 6.272 13.376 9.792 22.304 10.528 2.176 0.288 5.056-0.096 8.64-3.904 4.224-4.416 6.24-9.44 6.176-15.328v-0.032zM528.672 385.248h0.032c3.84-0.864 7.776-1.344 11.84-1.824l7.552-0.992 6.656 0.992c4.096 0.544 8.224 1.12 12.32 2.272 55.296 15.68 110.528 31.456 165.824 47.232l65.216 18.592c13.728 3.904 26.624 10.848 39.456 21.248 13.28 10.72 19.456 25.792 17.856 43.616-0.864 9.536-3.104 18.656-6.624 27.072-1.568 3.776-3.744 7.328-6.304 10.304l-89.664 103.136c-5.856 6.752-11.68 13.568-17.472 20.384l-8.256 9.696c-7.136 8.352-15.744 14.368-25.6 17.92-17.632 6.336-34.624 3.712-49.216-7.52-6.016-4.64-11.296-10.208-15.712-16.64-1.312-1.92-2.528-3.872-3.776-5.824l-133.664-205.248c-6.464-9.92-9.984-21.024-10.464-33.088-0.96-25.568 14.72-45.696 39.936-51.328zM530.304 449.344l134.016 205.792c0.96 1.536 1.92 3.072 2.912 4.544 2.24 3.264 4.768 5.952 7.744 8.256 4.448 3.392 8.352 3.968 13.952 1.952 3.712-1.312 6.944-3.648 9.856-7.072l8.192-9.6c5.888-6.912 11.776-13.824 17.728-20.672l89.728-103.328c2.112-5.024 3.392-10.336 3.904-16.128 0.544-6.176-1.216-8.928-4.224-11.36-8.864-7.168-17.44-11.872-26.272-14.368l-65.216-18.624c-55.264-15.776-110.496-31.52-165.664-47.2-2.272-0.64-4.672-0.864-7.008-1.184l-2.24-0.32-2.912 0.352c-2.784 0.32-5.472 0.608-8.064 1.184-7.68 1.696-11.136 6.048-10.848 13.568 0.224 5.28 1.664 9.92 4.448 14.208z" />
<glyph unicode="&#xe90e;" glyph-name="yelp_icon" d="M900.736 182.368c-6.016-41.344-90.4-148.608-129.248-164.128-13.28-5.28-26.080-4-36.256 3.84-6.56 5.12-13.408 15.584-104.416 163.296l-27.008 44.032c-10.4 15.776-8.48 36.576 4.448 52.448 12.672 15.328 31.232 21.088 47.392 14.944 0.864-0.512 68.096-22.656 68.096-22.656 153.088-50.304 158.080-52.224 164.576-57.088 9.696-7.936 14.176-20.256 12.16-34.688h0.256zM593.92 407.072c-10.848 16.48-10.656 35.872 0.512 49.28l42.592 57.984c93.408 127.328 98.592 134.016 104.928 138.464 10.912 7.296 24.32 7.648 37.152 1.376 37.088-18.016 111.904-129.248 116.448-171.904v-1.44c1.248-14.56-4.48-26.368-14.752-33.44-7.008-4.48-13.408-7.072-187.424-49.312-27.52-7.008-42.848-10.848-51.84-14.048l1.248 1.28c-17.248-5.12-36.448 3.168-47.328 20.448l-1.504 1.376zM487.072 473.056c-8.32-2.592-33.664-10.464-64.8 40.032 0 0-210.4 331.040-215.328 341.248-2.976 11.52 0.64 24.48 10.88 34.976 31.328 32.48 201.248 80 245.76 69.152 14.496-3.744 24.48-12.832 28-25.76 2.56-14.304 23.264-321.536 26.24-390.368 2.816-58.88-22.4-66.784-30.72-69.28zM514.848 136.288c-0.48-161.024-0.8-166.4-3.456-174.048-4.48-12-14.752-20-29.056-22.624-40.96-7.008-169.248 40.352-196 72.096-5.12 7.008-8.32 13.984-8.96 21.024-0.672 5.12 0 10.24 1.92 14.752 3.2 8.32 7.68 14.72 122.88 149.76l33.888 40.288c11.552 14.72 32 19.2 51.168 11.552 18.592-7.040 30.112-23.040 28.832-40.32v-71.68l-1.184-0.864zM165.728 239.264c-12.576 0.416-23.904 7.968-30.496 20.48-4.736 9.184-8.064 24.32-10.144 42.752-5.856 55.52 1.248 139.264 17.888 165.856 7.808 12.16 19.2 18.592 31.776 18.176 8.32 0 15.744-2.592 180.448-70.4l48.224-19.168c17.248-6.4 27.904-24.32 26.88-44.832-1.28-19.84-12.704-35.168-29.6-39.68l-68.48-21.76c-153.184-49.28-158.24-50.56-166.304-49.92l-0.128-1.504zM804.736-63.872h-0.16l-0.224-0.128 0.384 0.128z" />
<glyph unicode="&#xe90f;" glyph-name="twitter_icon-2" d="M695.52 714.72c44.192-0.64 83.84-19.456 111.936-49.28l0.064-0.064s61.12 12 94.88 35.744c0 0-8.48-47.040-64.736-83.040h0.48c4.32 0 35.84 0.8 85.44 24 0 0-9.504-27.136-74.4-78.72v0c3.904-122.080-56.48-347.744-280-428.096-45.536-17.184-98.144-27.232-153.12-27.456h-0.096c-0.576 0-1.28 0-1.952 0-87.040 0-168 25.888-235.648 70.368l1.632-0.992c12-1.216 22.816-1.216 33.6-1.216 132.16 0 196.16 67.84 192.64 67.84h-4.864c-112 0-139.264 107.2-139.264 107.2 7.616-4.672 16.864-7.456 26.72-7.456 1.088 0 2.176 0.032 3.264 0.096h-0.16c14.368 0.32 28.096 2.432 41.152 6.112l-1.152-0.288c-126.4 29.92-121.696 151.2-121.696 151.2 16.192-10.944 36.064-17.632 57.504-18.080h0.096c0.192 0 0.416 0 0.64 0 3.328 0 6.624 0.288 9.792 0.864l-0.352-0.064c-115.424 91.36-45.92 200.416-45.92 200.416 130.080-150.976 289.984-156.32 312-156.32h2.624c-11.84 70.88 17.376 138.944 96 176 15.040 7.072 32.672 11.2 51.264 11.2 0.384 0 0.768 0 1.12 0h-0.064zM849.6 563.2v0zM976 816l-103.456-72.64c-14.592-8.896-31.488-16.16-49.376-20.896l-1.344-0.288c-34.592 27.2-78.624 43.808-126.528 44.32h-0.128c-0.48 0-1.056 0-1.6 0-26.4 0-51.456-5.888-73.856-16.448l1.056 0.448c-73.44-34.464-118.080-93.984-126.944-165.44-89.824 18.976-166.4 66.336-221.824 132.128l-0.48 0.608-45.6 52.864-37.6-58.656c-18.368-29.792-29.248-65.92-29.248-104.576 0-10.112 0.736-20.096 2.176-29.824l-0.128 1.088-2.976-76.256c0-0.864-0.032-1.856-0.032-2.88 0-49.536 17.152-95.072 45.856-130.976l-0.32 0.416 8-31.2c12.096-41.568 35.456-76.672 66.56-102.848l0.32-0.256c-19.136-4.384-41.12-6.88-63.68-6.88-0.48 0-0.96 0-1.44 0h0.064c-9.536 0-19.36 0.384-29.28 1.216l-183.424 15.264 148.416-109.024c74.56-49.696 166.208-79.296 264.736-79.296 0.736 0 1.44 0 2.144 0h-0.096c61.408 0.16 120.192 11.296 174.528 31.552l-3.488-1.152c111.2 40.48 200.16 119.584 252.416 220.736l1.184 2.56c34.976 66.592 56.96 144.928 60.512 228.064l0.032 1.152c53.024 45.696 67.616 74.816 71.52 85.92l40.96 116.576-56-26.080 18.336 100.704z" />
<glyph unicode="&#xe910;" glyph-name="twitter_icon-3" d="M898.88 960c69.056 0 125.12-56.064 125.12-125.12v-773.792c0-69.056-56.064-125.12-125.12-125.12h-773.792c-69.056 0-125.12 56.064-125.12 125.12v773.792c0 69.056 56.064 125.12 125.12 125.12h773.792zM391.040 110.912c271.872 0 420.544 225.28 420.544 420.544 0 6.432 0 12.864-0.32 19.008 28.8 20.832 53.952 46.912 73.856 76.64-26.368-11.648-54.88-19.616-84.896-23.296 30.656 18.4 53.952 47.2 64.992 81.824-28.512-16.864-60.064-29.12-93.792-35.872-26.976 28.8-65.28 46.592-107.904 46.592-81.536 0-147.744-66.208-147.744-147.744 0-11.648 1.216-22.976 4-33.728-122.912 6.144-231.712 64.992-304.672 154.496-12.576-21.76-19.936-47.2-19.936-74.176 0-51.2 26.048-96.544 65.888-122.912-24.224 0.608-46.912 7.36-66.816 18.4v-1.824c0-71.712 50.88-131.2 118.624-144.992-12.256-3.36-25.44-5.216-38.912-5.216-9.504 0-18.688 0.928-27.904 2.752 18.688-58.848 73.248-101.472 137.92-102.688-50.56-39.552-114.336-63.136-183.584-63.136-11.968 0-23.616 0.608-35.264 2.144 64.672-42.304 142.528-66.816 225.888-66.816z" />
<glyph unicode="&#xe911;" glyph-name="twitter_icon-7" d="M824.32 738.88c0-8.832-7.168-16-16-16s-16 7.168-16 16c0 8.832 7.168 16 16 16s16-7.168 16-16z" />
<glyph unicode="&#xe913;" glyph-name="twitter_icon" d="M512.032 866.848c-245.632 0-444.768-199.168-444.768-444.768 0-245.632 199.136-444.736 444.768-444.736s444.736 199.104 444.736 444.736c0 245.6-199.104 444.768-444.736 444.768zM736.064 511.744c0.224-4.8 0.32-9.632 0.32-14.496 0-148.128-112.736-318.912-318.912-318.912-63.296 0-122.24 18.56-171.84 50.336 8.768-1.024 17.696-1.568 26.72-1.568 52.512 0 100.864 17.92 139.2 47.968-49.024 0.928-90.432 33.344-104.672 77.856 6.816-1.344 13.856-2.016 21.088-2.016 10.208 0 20.128 1.344 29.536 3.904-51.296 10.304-89.92 55.616-89.92 109.888 0 0.48 0 0.96 0.032 1.44 15.104-8.384 32.384-13.44 50.784-14.048-30.080 20.128-49.856 54.4-49.856 93.312 0 20.544 5.536 39.808 15.168 56.352 55.296-67.808 137.888-112.448 231.040-117.088-1.92 8.192-2.912 16.768-2.912 25.536 0 61.888 50.176 112.064 112.096 112.064 32.256 0 61.344-13.632 81.792-35.392 25.536 4.992 49.536 14.368 71.168 27.2-8.384-26.176-26.144-48.16-49.312-62.016 22.688 2.72 44.32 8.736 64.384 17.632-14.976-22.528-34.016-42.272-55.936-58.080z" />
<glyph unicode="&#xe914;" glyph-name="twitter_icon-1" d="M954.336 687.904c-32.704-14.528-67.904-24.352-104.864-28.736 37.728 22.592 66.624 58.336 80.256 100.992-35.264-20.928-74.336-36.128-115.936-44.32-33.28 35.488-80.736 57.664-133.248 57.664-100.8 0-182.528-81.728-182.528-182.56 0-14.272 1.6-28.224 4.736-41.6-151.712 7.616-286.24 80.288-376.288 190.752-15.712-26.944-24.704-58.304-24.704-91.808 0-63.328 32.224-119.2 81.216-151.936-29.92 0.96-58.080 9.184-82.688 22.848-0.032-0.768-0.032-1.536-0.032-2.304 0-88.448 62.944-162.208 146.464-179.008-15.328-4.16-31.456-6.4-48.096-6.4-11.776 0-23.2 1.152-34.368 3.296 23.232-72.512 90.656-125.312 170.528-126.784-62.464-48.96-141.184-78.144-226.72-78.144-14.72 0-29.248 0.864-43.552 2.56 80.8-51.808 176.768-82.016 279.84-82.016 335.808 0 519.392 278.144 519.392 519.392 0 7.904-0.16 15.808-0.512 23.648 35.648 25.696 66.624 57.856 91.072 94.464z" />
<glyph unicode="&#xe915;" glyph-name="twitter_icon-4" d="M322.016 31.968c386.4 0 597.76 320.128 597.76 597.76 0 9.088 0 18.144-0.608 27.168 41.12 29.728 76.608 66.56 104.832 108.736-38.336-16.992-79.008-28.128-120.672-33.056 43.84 26.24 76.672 67.552 92.352 116.192-41.248-24.48-86.368-41.728-133.408-51.008-39.712 42.24-95.2 66.24-153.184 66.24-115.36 0-210.304-94.944-210.304-210.304 0-16 1.824-31.968 5.44-47.552-168.832 8.448-326.368 88.32-432.992 219.488-55.456-95.456-26.752-219.168 65.056-280.448-33.44 0.992-66.144 10.016-95.36 26.304v-2.656c0.032-99.616 70.88-186.208 168.544-205.952-30.912-8.448-63.392-9.664-94.848-3.616 27.456-85.376 106.624-144.224 196.288-145.888-74.368-58.464-166.304-90.208-260.928-90.112-16.704 0.032-33.408 1.056-50.016 3.040 96.064-61.664 207.872-94.368 322.016-94.208z" />
<glyph unicode="&#xe916;" glyph-name="twitter_icon-5" d="M896-64h-768c-70.656 0-128 57.344-128 128v768c0 70.656 57.344 128 128 128h768c70.656 0 128-57.344 128-128v-768c0-70.656-57.344-128-128-128zM393.216 187.904c241.408 0 373.504 200.192 373.504 373.504 0 5.632 0 11.264-0.256 16.896 25.6 18.432 47.872 41.728 65.536 68.096-23.552-10.496-48.896-17.408-75.52-20.736 27.136 16.128 47.872 41.984 57.856 72.704-25.344-15.104-53.504-25.856-83.456-31.744-24.064 25.6-58.112 41.472-95.744 41.472-72.448 0-131.328-58.88-131.328-131.328 0-10.24 1.28-20.224 3.328-29.952-109.056 5.376-205.824 57.856-270.592 137.216-11.264-19.456-17.664-41.984-17.664-66.048 0-45.568 23.296-85.76 58.368-109.312-21.504 0.768-41.728 6.656-59.392 16.384v-1.792c0-63.488 45.312-116.736 105.216-128.768-11.008-3.072-22.528-4.608-34.56-4.608-8.448 0-16.64 0.768-24.576 2.304 16.64-52.224 65.28-90.112 122.624-91.136-45.056-35.328-101.632-56.32-163.072-56.32-10.496 0-20.992 0.512-31.232 1.792 57.856-36.864 126.976-58.624 200.96-58.624z" />
<glyph unicode="&#xe917;" glyph-name="twitter_icon-6" d="M739.68 195.136h-168.352c-119.776 0-138.848 52.992-138.848 102.112 0 23.328 1.44 61.76 2.88 108.864h281.28c42.080 0 122.4 17.248 122.4 94.24 0 76.96-37.088 127.392-86.752 127.392h-313.408c-0.32 111.040-7.552 221.664-116 221.664-44.864 0-81.248-18.432-96.608-64.16-20.128-60.096-14.816-130.496-14.56-193.088 0.064-11.872 0.128-23.84 0.16-35.776 0.16-40.992 0.96-82.24 1.152-123.424 0.096-44.352 0.16-88.672 0.16-132.992 0-248.288 225.664-318.624 268.96-318.624s212.832-4.032 243.456-4.032 118.528 8.096 118.528 97.024-62.336 120.8-104.448 120.8z" />
<glyph unicode="&#xe919;" glyph-name="linkedin_icon-4" d="M365.6 192v342.208h-109.792v-342.208h109.792zM314.816 585.984c36.608 0 59.392 26.208 59.392 59.008-0.608 33.408-22.816 59.008-58.816 59.008s-59.392-25.6-59.392-59.008c0-32.8 22.784-59.008 58.016-59.008h0.8zM641.216 541.984c-58.208 0-83.2-32.8-99.2-55.616v47.616h-110.016v-342.016h110.016v194.784c0 10.016 0.8 20 3.808 27.008 8 20 26.016 40.608 56.384 40.608 39.808 0 55.808-30.592 55.808-75.392v-187.008h110.016v199.808c0 102.592-54.4 150.208-126.784 150.208zM834.4 832h-640.8c-35.008 0-65.6-25.184-65.6-59.808v-642.208c0-34.784 30.592-65.792 65.6-65.792h640.608c35.2 0 61.6 31.2 61.6 65.792v642.208c0.192 34.592-26.4 59.808-61.408 59.808zM828 128c-2.208 0-626.208 0-629.792 0s-6.208 2.784-6.208 6.208 0 627.616 0 629.792 2.016 4 4 4 630.016 0 632 0 4-2.016 4-4c0-46.592 0-629.792 0-632 0-1.792-1.792-4-4-4z" />
<glyph unicode="&#xe91b;" glyph-name="linkedin_icon-12" d="M742.24-56.672h-460.512c-151.488 0.16-274.272 122.944-274.432 274.432v460.512c0.16 151.488 122.944 274.272 274.4 274.432h460.512c151.488-0.16 274.272-122.944 274.432-274.4v-460.512c-0.16-151.488-122.944-274.272-274.432-274.432v0zM281.76 879.552c-111.104-0.16-201.12-90.176-201.28-201.28v-460.512c0.16-111.104 90.176-201.12 201.28-201.28h460.512c111.104 0.16 201.12 90.176 201.28 201.28v460.512c-0.16 111.104-90.176 201.12-201.28 201.28v0zM305.728 526.4h0.288c27.616 0 50.016-22.4 50.016-50.016v-220.608c0-27.616-22.4-50.016-50.016-50.016h-0.288c-27.616 0-50.016 22.4-50.016 50.016v220.608c0 27.616 22.4 50.016 50.016 50.016zM306.016 690.24c-0.096 0-0.192 0-0.288 0-27.776 0-50.336-22.528-50.336-50.336s22.528-50.336 50.336-50.336c27.776 0 50.336 22.528 50.336 50.336 0 0.096 0 0.192 0 0.32v-0.032c-0.16 27.552-22.464 49.856-50.016 50.016h-0.032zM585.152 457.952c5.152 1.504 11.072 2.368 17.184 2.368 15.168 0 29.056-5.312 39.968-14.176l-0.128 0.096c15.616-18.208 25.12-42.080 25.12-68.16 0-3.712-0.192-7.392-0.576-11.008l0.032 0.448v-111.776c0.16-27.68 22.624-50.016 50.336-50.016 0 0 0 0 0 0v0c27.616 0 50.016 22.4 50.016 50.016v0 146.272c-0.192 32.448-9.312 62.72-25.024 88.544l0.448-0.768-1.472 1.76c-21.632 27.040-54.592 44.192-91.584 44.192-0.608 0-1.216 0-1.824 0h0.096c-2.4 0.192-5.216 0.288-8.032 0.288-38.816 0-73.056-19.68-93.216-49.632l-0.256-0.384-13.472-19.616v11.712c0 27.616-22.4 50.016-50.016 50.016v0 0c-27.616 0-50.016-22.4-50.016-50.016v0-220.608c0-27.616 22.4-50.016 50.016-50.016v0 0c0.096 0 0.192 0 0.288 0 27.456 0 49.728 22.272 49.728 49.728 0 0.096 0 0.192 0 0.32v0 146.592c19.616 49.728 52.384 53.536 52.384 53.824z" />
<glyph unicode="&#xe91c;" glyph-name="linkedin_icon" d="M512 866.88c-245.632 0-444.768-199.136-444.768-444.768 0-245.696 199.136-444.768 444.768-444.768 245.6 0 444.736 199.104 444.736 444.768 0 245.632-199.168 444.768-444.736 444.768zM759.744 206.080c0-19.808-16.448-35.808-36.672-35.808h-422.976c-20.288 0-36.672 16.032-36.672 35.808v427.872c0 19.744 16.384 35.808 36.672 35.808h422.976c20.256 0 36.672-16.064 36.672-35.808v-427.872zM597.856 482.432c-39.744 0-57.568-21.824-67.552-37.216v-0.736h-0.48c0.192 0.224 0.352 0.48 0.48 0.736v31.936h-74.944c0.992-21.12 0-225.472 0-225.472h74.944v125.952c0 6.784 0.48 13.44 2.464 18.272 5.44 13.44 17.76 27.456 38.464 27.456 27.168 0 38.016-20.704 38.016-51.008v-120.64h74.944v129.28c-0.032 69.28-37.024 101.504-86.336 101.504zM376.864 585.888c-25.632 0-42.432-16.864-42.432-39.008 0-21.632 16.256-38.976 41.44-38.976h0.48c26.144 0 42.4 17.344 42.4 38.976-0.48 22.112-16.256 39.008-41.888 39.008zM338.88 477.12h74.976v-225.504h-74.976v225.472z" />
<glyph unicode="&#xe91d;" d="M512-64c282.784 0 512 229.216 512 512s-229.216 512-512 512c-282.784 0-512-229.216-512-512s229.216-512 512-512z" />
<glyph unicode="&#xe91e;" d="M373.472 212.096v312.288h-96.512v-312.288h96.512zM373.472 635.072c-0.576 27.936-19.2 49.216-49.472 49.216s-50.048-21.28-50.048-49.216c0-27.328 19.2-49.248 48.896-49.248h0.576c30.848 0 50.048 21.888 50.048 49.248zM530.944 212.096v177.92c0 9.536 0.672 19.040 3.488 25.824 7.648 19.040 25.088 38.752 54.336 38.752 38.336 0 62.368-21.76 62.368-64.576v-177.92h97.184v182.688c0 97.856-52.256 143.392-121.92 143.392-57.12 0-82.208-31.936-96.128-53.696l0.704 41.76h-96.992c1.408-29.888 0-314.176 0-314.176h97.024z" />
<glyph unicode="&#xe91f;" glyph-name="linkedin_icon-2" d="M102.656 588.288h180.032v-541.728h-180.032v541.76zM193.856 849.44c-61.6 0-101.856-40.448-101.856-93.536 0-52 39.072-93.632 99.52-93.632h1.152c62.784 0 101.888 41.632 101.888 93.632-1.184 53.088-39.104 93.536-100.672 93.536zM724.672 601.024c-95.552 0-138.368-52.576-162.24-89.408v76.704h-180.064c2.4-50.816 0-541.728 0-541.728h180.064v302.56c0 16.192 1.184 32.352 5.92 43.968 13.024 32.352 42.656 65.856 92.352 65.856 65.216 0 91.232-49.696 91.232-122.496v-289.856h180.064v310.656c0 166.4-88.8 243.808-207.328 243.808z" />
<glyph unicode="&#xe920;" glyph-name="linkedin_icon-3" d="M543.136 470.496v1.376c-0.288-0.48-0.608-0.928-0.896-1.376h0.896zM889.824 875.712h-760.768c-36.416 0-65.952-28.832-65.952-64.352v-769.696c0-35.52 29.536-64.352 65.952-64.352h760.768c36.48 0 65.984 28.832 65.984 64.352v769.696c0 35.552-29.536 64.352-65.984 64.352zM333.696 123.648h-134.848v405.664h134.848v-405.664zM266.304 584.736h-0.896c-45.216 0-74.496 31.168-74.496 70.080 0 39.776 30.176 70.080 76.288 70.080s74.496-30.304 75.424-70.080c0-38.912-29.312-70.080-76.288-70.080zM819.904 123.648h-134.848v217.056c0 54.496-19.52 91.712-68.288 91.712-37.248 0-59.424-25.088-69.184-49.312-3.552-8.64-4.416-20.768-4.416-32.896v-226.56h-134.848c0 0 1.76 367.648 0 405.664h134.848v-57.408c17.92 27.648 49.952 67.008 121.536 67.008 88.704 0 155.232-57.984 155.232-182.624v-232.64z" />
<glyph unicode="&#xe923;" glyph-name="linkedin_icon-7" d="M512 960c282.592 0 512-229.408 512-512s-229.408-512-512-512c-282.592 0-512 229.408-512 512s229.408 512 512 512zM351.936 160.256v399.84h-132.928v-399.84h132.928zM831.168 160.256v229.28c0 122.816-65.568 179.936-153.024 179.936-70.496 0-102.080-38.784-119.776-66.016v56.608h-132.896c1.76-37.504 0-399.84 0-399.84h132.896v223.296c0 11.936 0.864 23.904 4.384 32.448 9.6 23.872 31.488 48.608 68.192 48.608 48.064 0 67.328-36.672 67.328-90.4v-213.92h132.896zM286.368 752.896c-45.472 0-75.2-29.888-75.2-69.088 0-38.368 28.8-69.088 73.44-69.088h0.864c46.336 0 75.2 30.72 75.2 69.088-0.864 39.2-28.864 69.088-74.304 69.088z" />
<glyph unicode="&#xe924;" glyph-name="linkedin_icon-8" d="M898.88 960c69.056 0 125.12-56.064 125.12-125.12v-773.792c0-69.056-56.064-125.12-125.12-125.12h-773.792c-69.056 0-125.12 56.064-125.12 125.12v773.792c0 69.056 56.064 125.12 125.12 125.12h773.792zM320.928 113.44v451.424h-150.080v-451.424h150.080zM862.016 113.44v258.88c0 138.656-74.048 203.168-172.768 203.168-79.616 0-115.264-43.776-135.232-74.528v63.904h-150.048c1.984-42.368 0-451.424 0-451.424h150.048v252.096c0 13.504 0.96 26.976 4.96 36.64 10.816 26.944 35.52 54.88 76.992 54.88 54.272 0 76-41.408 76-102.080v-241.536h150.048zM246.88 782.56c-51.36 0-84.896-33.76-84.896-78.016 0-43.328 32.512-78.016 82.912-78.016h0.96c52.32 0 84.896 34.688 84.896 78.016-0.96 44.192-32.48 77.92-83.872 78.016z" />
<glyph unicode="&#xe925;" glyph-name="linkedin_icon-9" d="M946.624 962.72c41.76 0 75.776-33.056 75.776-73.856v-876.512c0-40.8-34.016-73.92-75.776-73.92h-872.928c-41.664 0-75.552 33.12-75.552 73.92v876.512c0 40.8 33.856 73.856 75.552 73.856h872.928zM870.944 89.92v268.064c0 131.648-28.416 232.864-182.24 232.864-73.92 0-123.488-40.512-143.744-78.944h-2.080v66.816h-145.632v-488.8h151.744v241.76c0 63.776 12.064 125.536 91.104 125.536 77.952 0 78.944-72.928 78.944-129.6v-237.696h151.904zM301.984 578.72h-152.064v-488.8h152.064v488.8zM225.984 821.696c-48.8 0-88.128-39.456-88.128-88.096s39.328-88.096 88.128-88.096c48.608 0 88.064 39.456 88.064 88.096s-39.456 88.096-88.064 88.096z" />
<glyph unicode="&#xe926;" glyph-name="linkedin_icon-10" d="M341.344 149.344h-128v426.656h128v-426.656zM810.656 149.344h-128v227.936c0 59.392-21.152 88.96-63.104 88.96-33.248 0-54.304-16.544-64.896-49.696 0-53.856 0-267.168 0-267.168h-128c0 0 1.696 384 0 426.656h101.024l7.808-85.344h2.656c26.24 42.656 68.192 71.584 125.696 71.584 43.744 0 79.104-12.16 106.112-42.72 27.168-30.592 40.704-71.648 40.704-129.28v-240.928zM343.456 682.656c0-35.36-29.6-64-66.144-64s-66.144 28.64-66.144 64c0 35.36 29.6 64 66.144 64s66.144-28.64 66.144-64z" />
<glyph unicode="&#xe927;" glyph-name="linkedin_icon-11" d="M848.736 796c6.24 0 11.264-5.056 11.264-11.296v-673.504c0-6.24-5.056-11.264-11.264-11.264v0h-673.44c-6.24 0-11.296 5.056-11.296 11.264v0 673.504c0 6.24 5.056 11.296 11.296 11.296v0h673.504zM848.8 848h-673.504c-34.944 0-63.296-28.32-63.296-63.296v0-673.504c0.032-34.912 28.352-63.2 63.296-63.2h673.504c34.944 0 63.264 28.32 63.264 63.264v0 673.44c0 34.944-28.32 63.296-63.264 63.296-0.032 0-0.064 0-0.096 0v0zM298.176 556.8h93.824v-333.824h-93.856v333.824zM617.856 556.8c-80.384 0-81.856-46.496-81.856-49.696v49.696h-96v-333.824h96v190.56c0 14.88 4.384 46.88 49.856 46.88s45.024-45.856 45.024-45.856v-192h94.976v208c0 98.624-53.856 126.24-108 126.24zM391.936 626.176c0-25.888-20.992-46.88-46.88-46.88s-46.88 20.992-46.88 46.88c0 25.888 20.992 46.88 46.88 46.88s46.88-20.992 46.88-46.88z" />
<glyph unicode="&#xe928;" glyph-name="linkedin_icon-13" horiz-adv-x="896" d="M832 896h-768.192c-35.2 0-63.808-28.992-63.808-64.608v-766.784c0-35.616 28.608-64.608 63.808-64.608h768.192c35.2 0 64 28.992 64 64.608v766.784c0 35.584-28.8 64.608-64 64.608zM270.816 128h-132.8v427.616h132.992v-427.616zM204.416 613.984c-42.592 0-76.992 34.592-76.992 76.992s34.4 76.992 76.992 76.992c42.4 0 76.992-34.592 76.992-76.992 0-42.592-34.4-76.992-76.992-76.992zM768.608 128h-132.8v208c0 49.6-0.992 113.408-68.992 113.408-69.184 0-79.808-54.016-79.808-109.792v-211.616h-132.8v427.616h127.392v-58.4h1.792c17.792 33.6 61.184 68.992 125.792 68.992 134.4 0 159.392-88.608 159.392-203.808v-234.4z" />
<glyph unicode="&#xe929;" glyph-name="instagram_icon-2" d="M509.28 658.4c-126.432 0-231.168-102.944-231.168-231.168s102.944-231.168 231.168-231.168 231.168 104.736 231.168 231.168-104.736 231.168-231.168 231.168zM509.28 279.136c-81.28 0-148.096 66.816-148.096 148.096s66.816 148.096 148.096 148.096 148.096-66.816 148.096-148.096-66.816-148.096-148.096-148.096zM801.856 663.808c0-28.928-23.456-52.384-52.384-52.384s-52.384 23.456-52.384 52.384c0 28.928 23.456 52.384 52.384 52.384s52.384-23.456 52.384-52.384zM884.928 799.264c-46.944 48.768-113.792 74.048-189.632 74.048h-372.032c-157.12 0-261.856-104.736-261.856-261.856v-370.24c0-77.664 25.28-144.48 75.84-193.248 48.768-46.944 113.792-70.432 187.808-70.432h368.416c77.664 0 142.688 25.28 189.632 70.432 48.768 46.944 74.048 113.792 74.048 191.424v372.032c0 75.84-25.28 140.864-72.256 187.84zM877.728 239.392c0-56-19.872-101.12-52.384-131.84s-77.664-46.944-131.84-46.944h-368.416c-54.176 0-99.328 16.256-131.84 46.944-32.512 32.512-48.768 77.664-48.768 133.632v370.24c0 54.176 16.256 99.328 48.768 131.84 30.688 30.688 77.664 46.944 131.84 46.944h372.032c54.176 0 99.328-16.256 131.84-48.768 30.688-32.512 48.768-77.664 48.768-130.048v-372.032z" />
<glyph unicode="&#xe92a;" glyph-name="instagram_icon-3" d="M586.944 418.208c0-43.872-35.584-79.456-79.456-79.456s-79.456 35.584-79.456 79.456c0 43.872 35.584 79.456 79.456 79.456s79.456-35.584 79.456-79.456zM606.816 613.248h-198.656c-28.896 0-54.176-9.024-70.432-25.28s-25.28-41.536-25.28-70.432v-198.656c0-28.896 9.024-54.176 27.104-72.256 18.048-16.256 41.536-25.28 70.432-25.28h196.864c28.896 0 54.176 9.024 70.432 25.28 18.048 16.256 27.104 41.536 27.104 70.432v198.656c0 28.896-9.024 52.384-25.28 70.432-18.048 18.048-41.536 27.104-72.256 27.104zM507.488 295.392c-68.64 0-122.816 56-122.816 122.816 0 68.64 56 122.816 122.816 122.816s124.608-54.176 124.608-122.816c0-68.64-56-122.816-124.608-122.816zM635.712 517.536c-16.256 0-28.896 12.64-28.896 28.896s12.64 28.896 28.896 28.896 28.896-12.64 28.896-28.896-12.64-28.896-28.896-28.896zM511.104 866.080c-245.6 0-444.288-198.656-444.288-444.288s198.656-444.288 444.288-444.288c245.6 0 444.288 198.656 444.288 444.288 1.792 245.6-198.656 444.288-444.288 444.288zM747.68 317.056c0-41.536-14.432-77.664-39.744-102.944s-61.408-37.92-101.12-37.92h-196.864c-39.744 0-75.84 12.64-101.12 37.92-27.104 25.28-39.744 61.408-39.744 102.944v198.656c0 83.072 56 140.864 140.864 140.864h198.656c41.536 0 75.84-14.432 101.12-39.744s37.92-59.584 37.92-101.12v-198.656z" />
<glyph unicode="&#xe92b;" glyph-name="instagram_icon-4" d="M666.944 443.552c0-82.688-69.216-149.76-154.592-149.76-85.312 0-154.56 67.104-154.56 149.76 0 14.848 2.272 29.152 6.432 42.688l-38.752 8.416v-217.632c0-10.912 4.672-15.552 15.552-15.552h341.984c10.88 0 15.552 4.64 15.552 15.552v217.632l-38.016-8.416c4.128-13.568 6.4-27.84 6.4-42.688zM612.224 448.928c0-53.472-44.704-96.8-99.872-96.8s-99.872 43.328-99.872 96.8c0 53.472 44.704 96.8 99.872 96.8s99.872-43.328 99.872-96.8zM512 960c-282.752 0-512-229.216-512-512s229.248-512 512-512 512 229.248 512 512-229.248 512-512 512zM760.736 261.472c0-35.104-27.072-62.176-62.176-62.176h-373.088c-35.104 0-62.176 27.072-62.176 62.176v373.088c0 35.104 27.072 62.176 62.176 62.176h373.088c35.104 0 62.176-27.072 62.176-62.176v-373.088zM683.008 634.56h-62.208c-8.608 0-15.552-6.944-15.552-15.552v-62.176c0-8.608 6.944-15.552 15.552-15.552h62.176c8.608 0 15.552 6.944 15.552 15.552v62.176c0 8.576-6.944 15.552-15.52 15.552z" />
<glyph unicode="&#xe930;" glyph-name="instagram_icon-6" d="M512 960c282.592 0 512-229.408 512-512s-229.408-512-512-512c-282.592 0-512 229.408-512 512s229.408 512 512 512zM512 768c-86.912 0-97.792-0.352-131.936-1.92-34.048-1.568-57.312-6.976-77.664-14.88-21.056-8.192-38.88-19.136-56.672-36.896s-28.736-35.648-36.896-56.672c-7.904-20.352-13.312-43.616-14.88-77.664-1.568-34.144-1.92-45.024-1.92-131.936s0.352-97.792 1.92-131.936c1.568-34.048 6.976-57.312 14.88-77.664 8.192-21.056 19.136-38.88 36.896-56.672s35.648-28.736 56.672-36.896c20.352-7.904 43.616-13.312 77.664-14.88 34.144-1.568 45.024-1.92 131.936-1.92s97.792 0.384 131.936 1.92c34.048 1.568 57.312 6.976 77.664 14.88 21.056 8.192 38.88 19.136 56.672 36.896s28.736 35.648 36.896 56.672c7.904 20.352 13.312 43.616 14.88 77.664 1.568 34.144 1.92 45.024 1.92 131.936s-0.384 97.792-1.92 131.936c-1.568 34.048-6.976 57.312-14.88 77.664-8.192 21.056-19.136 38.88-36.896 56.672s-35.648 28.736-56.672 36.896c-20.352 7.904-43.616 13.312-77.664 14.88-34.144 1.568-45.024 1.92-131.936 1.92zM512 710.336c85.44 0 95.552-0.32 129.312-1.856 31.2-1.44 48.128-6.624 59.424-11.008 14.944-5.792 25.6-12.736 36.8-23.936s18.144-21.856 23.936-36.8c4.384-11.264 9.6-28.224 11.008-59.424 1.536-33.76 1.856-43.872 1.856-129.312s-0.32-95.552-1.856-129.312c-1.408-31.2-6.624-48.128-11.008-59.424-5.792-14.944-12.736-25.6-23.936-36.8s-21.856-18.144-36.8-23.936c-11.264-4.384-28.224-9.6-59.424-11.008-33.728-1.536-43.872-1.856-129.312-1.856s-95.552 0.32-129.312 1.856c-31.2 1.408-48.128 6.624-59.424 11.008-14.944 5.792-25.6 12.736-36.8 23.936s-18.144 21.856-23.936 36.8c-4.384 11.264-9.6 28.224-11.008 59.424-1.536 33.76-1.856 43.872-1.856 129.312s0.32 95.552 1.856 129.312c1.44 31.2 6.624 48.128 11.008 59.424 5.792 14.944 12.736 25.6 23.936 36.8s21.856 18.144 36.8 23.936c11.264 4.384 28.224 9.6 59.424 11.008 33.76 1.536 43.872 1.856 129.312 1.856zM512 612.32c-90.752 0-164.32-73.568-164.32-164.32s73.568-164.32 164.32-164.32c90.752 0 164.32 73.568 164.32 164.32s-73.568 164.32-164.32 164.32zM512 341.344c-58.912 0-106.656 47.744-106.656 106.656s47.744 106.656 106.656 106.656c58.912 0 106.656-47.744 106.656-106.656s-47.744-106.656-106.656-106.656zM721.216 618.816c0-21.216-17.184-38.4-38.4-38.4s-38.4 17.184-38.4 38.4 17.184 38.4 38.4 38.4c21.216 0 38.4-17.184 38.4-38.4z" />
<glyph unicode="&#xe931;" glyph-name="instagram_icon-7" d="M898.88 960c69.056 0 125.12-56.064 125.12-125.12v-773.792c0-69.056-56.064-125.12-125.12-125.12h-773.792c-69.056 0-125.12 56.064-125.12 125.12v773.792c0 69.056 56.064 125.12 125.12 125.12h773.792zM512 797.984c-95.040 0-106.976-0.416-144.288-2.112-37.248-1.696-62.688-7.616-84.96-16.256-23.008-8.928-42.528-20.928-61.984-40.352s-31.424-38.976-40.384-61.984c-8.64-22.272-14.56-47.712-16.256-84.96-1.696-37.344-2.112-49.248-2.112-144.32s0.416-106.976 2.112-144.288c1.696-37.248 7.616-62.688 16.256-84.96 8.928-23.008 20.928-42.528 40.384-61.984s38.976-31.424 61.984-40.384c22.272-8.64 47.712-14.56 84.96-16.256 37.344-1.696 49.248-2.112 144.288-2.112s106.976 0.416 144.288 2.112c37.248 1.696 62.688 7.616 84.96 16.256 23.008 8.928 42.528 20.928 61.984 40.384s31.424 38.976 40.384 61.984c8.64 22.272 14.56 47.712 16.256 84.96 1.696 37.344 2.112 49.248 2.112 144.288s-0.416 106.976-2.112 144.288c-1.696 37.248-7.616 62.688-16.256 84.96-8.928 23.008-20.928 42.528-40.384 61.984s-38.976 31.424-61.984 40.352c-22.272 8.64-47.712 14.56-84.96 16.256-37.344 1.696-49.248 2.112-144.288 2.112zM512 734.944c93.44 0 104.512-0.352 141.44-2.048 34.112-1.568 52.64-7.264 64.992-12.064 16.352-6.336 28-13.952 40.256-26.176s19.84-23.904 26.176-40.256c4.8-12.32 10.496-30.88 12.064-64.992 1.696-36.896 2.048-47.968 2.048-141.44s-0.352-104.512-2.048-141.44c-1.568-34.112-7.264-52.64-12.064-64.992-6.336-16.352-13.92-28-26.176-40.256s-23.904-19.84-40.256-26.176c-12.32-4.8-30.88-10.496-64.992-12.064-36.896-1.696-47.968-2.048-141.44-2.048s-104.544 0.352-141.44 2.048c-34.112 1.568-52.672 7.264-64.992 12.064-16.352 6.336-28 13.92-40.256 26.176s-19.84 23.904-26.176 40.256c-4.8 12.32-10.496 30.88-12.064 64.992-1.696 36.896-2.048 47.968-2.048 141.44s0.352 104.512 2.048 141.44c1.568 34.112 7.264 52.672 12.064 64.992 6.336 16.352 13.92 28 26.176 40.256s23.904 19.84 40.256 26.176c12.32 4.8 30.88 10.496 64.992 12.064 36.896 1.696 47.968 2.048 141.44 2.048zM512 627.744c-99.264 0-179.744-80.48-179.744-179.744s80.48-179.744 179.744-179.744c99.264 0 179.744 80.48 179.744 179.744s-80.48 179.744-179.744 179.744zM512 331.328c-64.448 0-116.672 52.224-116.672 116.672s52.224 116.672 116.672 116.672c64.448 0 116.672-52.224 116.672-116.672s-52.224-116.672-116.672-116.672zM740.832 634.816c0-23.2-18.816-41.984-42.016-41.984s-41.984 18.816-41.984 41.984 18.816 42.016 41.984 42.016c23.2 0 42.016-18.816 42.016-42.016z" />
<glyph unicode="&#xe932;" glyph-name="instagram_icon-8" d="M835.84 715.52c0 0 0 0 0 0 0-32.736-26.528-59.232-59.232-59.232s-59.232 26.528-59.232 59.232c0 32.736 26.528 59.232 59.232 59.232 0 0 0 0 0 0v0c32.704 0 59.232-26.528 59.232-59.232v0zM1024 448v-0.736l-3.36-214.816c-1.888-161.088-131.968-291.2-292.896-293.056h-0.192l-216.32-3.36-214.816 3.36c-161.088 1.888-291.2 131.968-293.088 292.896v0.192l-3.36 215.584v0.736l3.36 214.816c1.888 161.088 131.968 291.168 292.896 293.056h0.192l216.32 3.36 214.816-3.36c161.088-1.888 291.168-131.968 293.056-292.896v-0.192zM928.64 448l-3.36 214.080c-1.28 109.504-89.728 197.952-199.104 199.232h-0.128l-214.080 3.328-214.080-3.328c-109.504-1.28-197.952-89.728-199.232-199.104v-0.128l-3.328-214.080 3.328-214.080c1.28-109.504 89.728-197.952 199.104-199.232h0.128l214.080-3.328 214.080 3.328c109.504 1.28 197.952 89.728 199.232 199.104v0.128zM774.944 448c0-145.216-117.728-262.944-262.944-262.944s-262.944 117.728-262.944 262.944c0 145.216 117.728 262.944 262.944 262.944 0 0 0 0 0 0v0c145.152-0.16 262.752-117.792 262.912-262.912v-0.032zM679.584 448c0 92.544-75.040 167.584-167.584 167.584s-167.584-75.040-167.584-167.584c0-92.544 75.040-167.584 167.584-167.584 0 0 0 0 0 0v0c92.512 0.096 167.456 75.072 167.584 167.584v0z" />
<glyph unicode="&#xe933;" glyph-name="instagram_icon-9" d="M629.504 664.96h-235.040c0 0 0 0 0 0-54.912 0-99.424-44.512-99.424-99.424 0 0 0 0 0 0v0-235.040c0-54.912 44.512-99.424 99.424-99.424h235.040c54.912 0 99.424 44.512 99.424 99.424v235.040c0 0 0 0 0 0 0 54.912-44.512 99.424-99.424 99.424v0zM512 311.232c-75.552 0-136.768 61.248-136.768 136.768s61.248 136.768 136.768 136.768c75.552 0 136.768-61.248 136.768-136.768v0c0-75.552-61.248-136.768-136.768-136.768v0zM654.496 556.832c0 0 0 0 0 0-17.984 0-32.544 14.56-32.544 32.544s14.56 32.544 32.544 32.544c17.984 0 32.544-14.56 32.544-32.544v0c0-17.984-14.56-32.544-32.544-32.544v0zM512 536.896c-49.088 0-88.896-39.808-88.896-88.896s39.808-88.896 88.896-88.896c49.12 0 88.896 39.808 88.896 88.896v0c0 49.088-39.808 88.896-88.896 88.896v0zM512 960c-282.784 0-512-229.216-512-512s229.216-512 512-512 512 229.216 512 512-229.216 512-512 512zM778.656 335.008c0-84.864-68.8-153.664-153.664-153.664h-226.016c-84.864 0-153.664 68.8-153.664 153.664v0 226.016c0 84.864 68.8 153.664 153.664 153.664h226.016c84.864 0 153.664-68.8 153.664-153.664v0z" />
<glyph unicode="&#xe934;" glyph-name="instagram_icon" d="M695.616 519.424v81.952l-81.952-0.288 0.256-81.92zM509.792 330.208c46.912 0 85.12 38.176 85.12 85.088 0 18.528-6.048 35.68-16.128 49.632-15.456 21.408-40.608 35.488-68.992 35.488s-53.504-14.080-68.992-35.488c-10.112-13.952-16.096-31.136-16.096-49.632 0-46.912 38.176-85.088 85.088-85.088zM512.032 866.848c-245.632 0-444.768-199.104-444.768-444.736s199.136-444.768 444.768-444.768c245.6 0 444.736 199.136 444.736 444.768s-199.168 444.736-444.736 444.736zM751.584 464.928v-197.984c0-51.52-41.952-93.408-93.44-93.408h-296.672c-51.52 0-93.44 41.888-93.44 93.408v296.672c0 51.52 41.888 93.44 93.44 93.44h296.672c51.52 0 93.44-41.888 93.44-93.44v-98.688zM642.016 415.296c0-72.896-59.296-132.224-132.224-132.224s-132.192 59.328-132.192 132.224c0 17.568 3.488 34.272 9.696 49.632h-72.192v-197.984c0-25.536 20.768-46.304 46.304-46.304h296.672c25.536 0 46.304 20.768 46.304 46.304v197.984h-72.224c6.272-15.36 9.792-32.064 9.792-49.632z" />
<glyph unicode="&#xe935;" glyph-name="instagram_icon-1" d="M784.16 872.736h-549.344c-95.424 0-173.056-77.6-173.056-173.024v-549.376c0-95.424 77.632-173.024 173.056-173.024h549.376c95.424 0 173.024 77.6 173.024 173.024v549.376c-0.032 95.424-77.632 173.024-173.056 173.024zM833.792 769.536l19.808 0.064v-151.776l-151.264-0.48-0.512 151.744 132 0.448zM381.664 516.928c28.672 39.68 75.2 65.696 127.808 65.696s99.136-26.016 127.776-65.696c18.656-25.888 29.824-57.568 29.824-91.904 0-86.912-70.784-157.6-157.632-157.6-86.912 0-157.6 70.688-157.6 157.6 0.032 34.304 11.168 65.984 29.824 91.904zM869.952 150.368c0-47.328-38.496-85.792-85.792-85.792h-549.344c-47.328 0-85.824 38.464-85.824 85.792v366.56h133.664c-11.552-28.384-18.016-59.392-18.016-91.904 0-134.976 109.824-244.864 244.864-244.864s244.832 109.888 244.832 244.864c0 32.48-6.528 63.52-18.048 91.904h133.696v-366.56z" />
<glyph unicode="&#xe936;" glyph-name="instagram_icon-10" d="M640 448c0-70.688-57.312-128-128-128s-128 57.312-128 128c0 70.688 57.312 128 128 128s128-57.312 128-128zM688 848h-352c-123.712 0-224-100.288-224-224v0-352c0-123.712 100.288-224 224-224v0h352c123.712 0 224 100.288 224 224v0 352c0 123.712-100.288 224-224 224v0zM512 256c-106.048 0-192 85.952-192 192s85.952 192 192 192c106.048 0 192-85.952 192-192v0c0-106.048-85.952-192-192-192v0zM720 608c-26.496 0-48 21.504-48 48s21.504 48 48 48c26.496 0 48-21.504 48-48v0c0-26.496-21.504-48-48-48v0z" />
<glyph unicode="&#xe937;" glyph-name="instagram_icon-11" d="M698.656 821.344c102.976-0.32 186.368-83.712 186.688-186.656v-373.344c-0.32-102.976-83.712-186.368-186.656-186.688h-373.344c-102.976 0.32-186.368 83.712-186.688 186.656v373.344c0.32 102.976 83.712 186.368 186.656 186.688h373.344zM698.656 896h-373.312c-143.744 0-261.344-117.6-261.344-261.344v-373.312c0-143.744 117.6-261.344 261.344-261.344h373.312c143.744 0 261.344 117.6 261.344 261.344v373.312c0 143.744-117.6 261.344-261.344 261.344zM754.656 634.656c-30.912 0-56 25.088-56 56s25.088 56 56 56c30.912 0 56-25.088 56-56v0c0-0.032 0-0.064 0-0.128 0-30.848-25.024-55.872-55.872-55.872-0.032 0-0.096 0-0.128 0v0zM512 597.344c82.464 0 149.344-66.848 149.344-149.344s-66.848-149.344-149.344-149.344c-82.464 0-149.344 66.848-149.344 149.344v0c0.096 82.432 66.912 149.248 149.344 149.344v0zM512 672c-123.712 0-224-100.288-224-224s100.288-224 224-224c123.712 0 224 100.288 224 224v0c0 123.712-100.288 224-224 224v0z" />
<glyph unicode="&#xe938;" glyph-name="google-plus_icon-1" d="M418.208 494.176c-29.824 0.896-59.584 36.128-64.864 76.864-3.008 22.784 1.792 43.232 13.088 56.192 7.36 8.352 16.96 12.768 27.712 12.768h1.248c30.432-0.896 59.552-34.816 64.896-75.616 3.008-22.848-2.080-44.32-13.568-57.408-7.36-8.384-16.8-12.8-28-12.8 0 0 0 0-0.032 0h-0.48zM932 448c0-231.392-188.032-418.944-419.968-418.944-231.968 0-420.032 187.552-420.032 418.944s188.032 418.944 420.032 418.944c231.936 0 419.968-187.584 419.968-418.944zM550.4 324.896c0 44.512-14.272 71.168-52.672 98.336-16.48 11.648-31.456 28.736-31.68 33.984 0 9.568 0.832 14.112 22.304 30.848 27.744 21.728 43.040 50.272 43.040 80.448 0 27.36-8.384 51.648-22.592 68.704h11.008c2.336 0 4.512 0.704 6.368 2.048l30.816 22.304c3.84 2.752 5.408 7.648 3.936 12.096s-5.568 7.488-10.272 7.488h-137.696c-15.072 0-30.4-2.656-45.408-7.84-50.176-17.312-85.28-60.064-85.28-103.968 0-62.176 48.192-109.344 112.576-110.816-1.28-4.928-1.888-9.76-1.888-14.56 0-9.568 2.432-18.688 7.424-27.424-0.576 0-1.152 0-1.792 0-61.376 0-116.8-30.112-137.824-74.944-5.504-11.648-8.288-23.424-8.288-35.072 0-11.328 2.88-22.208 8.608-32.448 13.184-23.648 41.632-42.016 79.968-51.712 19.808-4.992 41.12-7.552 63.232-7.552 19.84 0 38.752 2.56 56.288 7.616 54.592 15.872 89.856 56.032 89.856 102.432zM771.552 480.992c0 5.984-4.864 10.848-10.816 10.848h-78.272v78.24c0 5.952-4.832 10.816-10.816 10.816h-22.304c-5.984 0-10.848-4.864-10.848-10.816v-78.24h-78.24c-5.952 0-10.848-4.864-10.848-10.848v-22.304c0-5.984 4.864-10.816 10.848-10.816h78.24v-78.272c0-5.984 4.864-10.816 10.848-10.816h22.304c5.984 0 10.816 4.832 10.816 10.816v78.272h78.272c5.952 0 10.816 4.864 10.816 10.816v22.304zM451.904 371.232c-2.976 2.016-6.080 4.128-9.312 6.368-9.408 2.848-19.328 4.384-29.536 4.48h-1.28c-46.88 0-88-28.384-88-60.768 0-35.232 35.232-62.784 80.192-62.784 59.296 0 89.376 20.448 89.376 60.736 0 3.808-0.448 7.776-1.376 11.712-4 15.68-18.336 25.44-40.064 40.256z" />
<glyph unicode="&#xe939;" glyph-name="google-plus_icon-4" d="M943.168 493.056h-135.68v135.648c0 10.336-8.384 18.752-18.72 18.752h-38.624c-10.4 0-18.816-8.416-18.816-18.752v-135.648h-135.68c-10.336 0-18.752-8.448-18.752-18.816v-38.624c0-10.368 8.448-18.752 18.752-18.752h135.68v-135.712c0-10.368 8.384-18.752 18.816-18.752h38.624c10.336 0 18.72 8.384 18.72 18.752v135.744h135.68c10.336 0 18.752 8.384 18.752 18.752v38.624c0 10.368-8.448 18.784-18.752 18.784zM487.2 374.112c-28.544 20.224-54.464 49.856-54.912 58.944 0 16.576 1.472 24.512 38.656 53.472 48.096 37.632 74.56 87.136 74.56 139.424 0 47.424-14.496 89.536-39.136 119.136h19.136c3.968 0 7.84 1.216 11.008 3.552l53.376 38.656c6.624 4.736 9.408 13.216 6.88 20.96s-9.696 12.992-17.856 12.992h-238.72c-26.112 0-52.64-4.608-78.688-13.568-86.976-30.016-147.808-104.128-147.808-180.224 0-107.808 83.52-189.536 195.168-192.096-2.176-8.544-3.296-16.96-3.296-25.216 0-16.608 4.224-32.352 12.864-47.552-1.024 0-1.984 0-3.072 0-106.432 0-202.464-52.224-238.944-129.92-9.504-20.224-14.336-40.64-14.336-60.8 0-19.616 5.024-38.496 14.912-56.224 22.912-40.992 72.128-72.8 138.656-89.6 34.336-8.672 71.232-13.088 109.536-13.088 34.432 0 67.232 4.448 97.6 13.216 94.624 27.488 155.776 97.12 155.776 177.504-0.032 77.152-24.832 123.328-91.392 170.432zM185.728 197.504c0 56.128 71.296 105.344 152.544 105.344h2.176c17.696-0.224 34.944-2.816 51.2-7.808 5.568-3.84 10.976-7.52 16.128-11.040 37.632-25.664 62.528-42.56 69.44-69.728 1.632-6.848 2.432-13.696 2.432-20.32 0-69.888-52.096-105.312-154.944-105.312-77.952 0-138.976 47.808-138.976 108.864zM259.68 727.744c12.704 14.496 29.344 22.176 48 22.176l2.112-0.032c52.768-1.568 103.232-60.352 112.512-131.072 5.216-39.584-3.584-76.832-23.488-99.52-12.736-14.528-29.12-22.208-48.576-22.208 0 0 0 0-0.032 0h-0.864c-51.68 1.6-103.232 62.624-112.48 133.248-5.184 39.488 3.136 74.976 22.784 97.376z" />
<glyph unicode="&#xe93a;" glyph-name="google-plus_icon-5" d="M458.784 382.176c-2.592 1.696-5.216 3.52-7.968 5.408-8.064 2.496-16.576 3.744-25.344 3.872h-1.056c-40.224 0-75.488-24.352-75.488-52.096 0-30.24 30.208-53.856 68.768-53.856 50.848 0 76.64 17.536 76.64 52.096 0 3.264-0.384 6.688-1.184 10.048-3.424 13.44-15.744 21.792-34.336 34.528zM430.304 487.584c0.032 0 0.032 0 0.032 0 9.6 0 17.728 3.776 24.032 11.008 9.856 11.232 14.208 29.664 11.648 49.216-4.576 34.976-29.568 64.096-55.648 64.864l-1.056 0.032c-9.216 0-17.472-3.808-23.744-10.976-9.696-11.104-13.824-28.672-11.264-48.192 4.576-34.944 30.112-65.12 55.648-65.952h0.352zM512 845.216c-219.040 0-397.216-178.208-397.216-397.216s178.208-397.216 397.216-397.216c219.040 0 397.216 178.208 397.216 397.216s-178.208 397.216-397.216 397.216zM466.208 254.592c-15.008-4.352-31.232-6.528-48.288-6.528-18.976 0-37.216 2.176-54.208 6.496-32.896 8.288-57.216 24.064-68.576 44.352-4.896 8.768-7.36 18.112-7.36 27.808 0 9.952 2.4 20.096 7.104 30.112 18.016 38.432 65.568 64.288 118.208 64.288 0.544 0 1.024 0 1.504 0-4.256 7.52-6.336 15.328-6.336 23.52 0 4.064 0.544 8.256 1.632 12.48-55.232 1.248-96.576 41.696-96.576 95.040 0 37.664 30.112 74.336 73.12 89.152 12.864 4.448 26.016 6.72 38.912 6.72h118.112c4 0 7.552-2.624 8.832-6.432s-0.128-8-3.392-10.368l-26.432-19.136c-1.568-1.12-3.456-1.728-5.44-1.728h-9.472c12.192-14.624 19.36-35.52 19.36-58.944 0-25.888-13.12-50.336-36.896-68.96-18.4-14.336-19.136-18.304-19.136-26.464 0.224-4.48 13.056-19.168 27.2-29.152 32.928-23.296 45.216-46.144 45.216-84.288 0-39.808-30.272-74.24-77.088-87.84zM732.928 457.184c0-5.12-4.192-9.28-9.28-9.28h-67.136v-67.168c0-5.12-4.16-9.28-9.248-9.28h-19.136c-5.152 0-9.312 4.16-9.312 9.28v67.168h-67.104c-5.12 0-9.28 4.128-9.28 9.28v19.104c0 5.12 4.16 9.312 9.28 9.312h67.104v67.104c0 5.152 4.16 9.28 9.312 9.28h19.136c5.088 0 9.248-4.16 9.248-9.28v-67.072h67.136c5.12 0 9.28-4.16 9.28-9.28v-19.136z" />
<glyph unicode="&#xe93b;" glyph-name="google-plus_icon-6" d="M506.976 884.96c-245.664 0-444.768-199.104-444.768-444.736s199.136-444.768 444.768-444.768 444.768 199.136 444.768 444.768-199.136 444.736-444.768 444.736zM549.056 323.296c-46.080-64.832-138.624-83.776-210.816-56-72.448 27.616-123.776 104.128-117.664 182.144 1.6 95.456 89.344 179.072 184.8 175.872 45.728 2.112 88.736-17.792 123.776-45.728-14.944-16.992-30.432-33.344-46.976-48.672-42.112 29.12-102.016 37.408-144.128 3.808-60.256-41.664-62.976-140.032-5.056-184.896 56.352-51.136 162.88-25.76 178.432 52.544-35.296 0.544-70.688 0-105.984 1.152-0.096 21.056-0.192 42.112-0.096 63.168 59.008 0.192 118.016 0.256 177.12-0.192 3.552-49.536-3.008-102.272-33.44-143.232zM803.52 413.984c-17.6-0.192-35.2-0.256-52.896-0.448-0.192-17.696-0.256-35.296-0.352-52.896-17.6 0-35.136 0-52.736 0-0.192 17.6-0.192 35.2-0.352 52.8-17.6 0.192-35.296 0.352-52.896 0.544 0 17.504 0 35.040 0 52.64 17.6 0.192 35.2 0.256 52.896 0.352 0.096 17.696 0.256 35.296 0.448 52.896 17.504 0 35.040 0 52.64 0 0.096-17.6 0.192-35.296 0.352-52.896 17.6-0.192 35.296-0.192 52.896-0.352 0-17.504 0-35.136 0-52.64z" />
<glyph unicode="&#xe93c;" glyph-name="google-plus_icon-7" d="M823.68 736.16c0-8.832-7.168-16-16-16s-16 7.168-16 16c0 8.832 7.168 16 16 16s16-7.168 16-16z" />
<glyph unicode="&#xe93d;" glyph-name="google-plus_icon" d="M932 501.376v-36.096c0-9.664-7.84-17.536-17.504-17.536h-126.656v-126.624c0-9.664-7.808-17.536-17.504-17.536h-36.064c-9.696 0-17.536 7.84-17.536 17.536v126.624h-126.624c-9.664 0-17.536 7.84-17.536 17.536v36.096c0 9.664 7.904 17.536 17.536 17.536h126.624v126.624c0 9.664 7.84 17.536 17.536 17.536h36.064c9.696 0 17.504-7.872 17.504-17.536v-126.624h126.656c9.664 0 17.504-7.872 17.504-17.536zM574.112 248.768c0-75.072-57.056-140.064-145.376-165.728-28.352-8.192-58.976-12.32-91.104-12.32-35.776 0-70.24 4.128-102.304 12.192-62.048 15.68-108.064 45.408-129.408 83.648-9.248 16.544-13.952 34.176-13.952 52.48 0 18.848 4.48 37.888 13.408 56.768 34.016 72.544 123.712 121.28 223.040 121.28 1.024 0 1.952 0 2.88 0.032-8.096 14.144-12.032 28.864-12.032 44.384 0 7.712 1.024 15.552 3.072 23.552-104.192 2.4-182.176 78.72-182.176 179.296 0 71.072 56.768 140.224 137.984 168.256 24.32 8.352 49.12 12.672 73.504 12.672h222.816c7.616 0 14.272-4.96 16.608-12.128 2.4-7.232-0.192-15.168-6.368-19.584l-49.856-36.064c-2.976-2.208-6.528-3.328-10.272-3.328h-17.792c23.008-27.648 36.544-66.944 36.544-111.2 0-48.8-24.768-95.008-69.664-130.176-34.688-27.040-36.064-34.4-36.064-49.92 0.384-8.512 24.608-36.16 51.264-55.008 62.144-43.968 85.248-87.104 85.248-159.104zM360.192 522.72h0.768c0.032 0 0.032 0 0.032 0 18.144 0 33.44 7.136 45.312 20.672 18.56 21.184 26.816 55.936 21.92 92.896-8.672 66.016-55.808 120.928-105.024 122.368h-2.016c-17.408 0-32.96-7.136-44.832-20.672-18.336-20.96-26.080-54.048-21.184-90.912 8.576-65.92 56.736-122.88 104.96-124.352zM481.792 239.68c0 6.176-0.736 12.576-2.24 18.944-6.496 25.376-29.696 41.184-64.832 65.12-4.832 3.264-9.856 6.688-15.072 10.272-15.2 4.64-31.296 7.104-47.808 7.264l-2.048 0.032c-75.84 0-142.4-45.92-142.4-98.336 0-56.992 57.024-101.6 129.792-101.6 95.968 0 144.608 33.056 144.608 98.304z" />
<glyph unicode="&#xe93e;" glyph-name="google-plus_icon-2" d="M512 866.944c-231.968 0-420.032-187.552-420.032-418.944s188.032-418.944 420.032-418.944c231.936 0 420 187.552 420 418.944s-188.032 418.944-419.968 418.944zM415.328 254.656c-106.816 0-193.344 86.528-193.344 193.344s86.528 193.344 193.344 193.344c52.192 0 95.808-19.2 129.28-50.4l-54.496-54.496v0.128c-20.288 19.328-46.016 29.248-74.784 29.248-63.808 0-115.648-53.888-115.648-117.696s51.84-117.824 115.648-117.824c57.888 0 97.28 33.12 105.376 78.528h-105.376v75.392h181.856c2.432-12.928 3.744-26.464 3.744-40.608 0-110.432-73.952-188.992-185.6-188.992zM802.016 423.84h-60.416v-60.416h-48.32v60.416h-60.416v48.32h60.416v60.416h48.32v-60.416h60.416v-48.32z" />
<glyph unicode="&#xe93f;" glyph-name="google-plus_icon-3" d="M635.36 500.512c3.52-18.72 5.408-38.336 5.408-58.784 0-159.968-107.072-273.696-268.8-273.696-154.688 0-280 125.312-280 280s125.312 280 280 280c75.616 0 138.784-27.808 187.264-72.96l-78.944-78.944v0.192c-29.408 28-66.656 42.336-108.32 42.336-92.384 0-167.488-78.048-167.488-170.464s75.072-170.624 167.488-170.624c83.84 0 140.864 47.968 152.608 113.76h-152.608v109.216h263.36zM844.512 483.008v87.488h-70.016v-87.488h-87.488v-70.016h87.488v-87.488h70.016v87.488h87.488v70.016h-87.488z" />
<glyph unicode="&#xe940;" glyph-name="google-plus_icon-8" horiz-adv-x="896" d="M800 896h-704c-52.992 0-96-43.008-96-96v-704c0-52.992 43.008-96 96-96h704c52.992 0 96 43.008 96 96v704c0 52.992-43.008 96-96 96zM328 248c-110.592 0-200 89.408-200 200s89.408 200 200 200c54.016 0 99.008-19.616 134.016-52.384l-54.208-52.192c-14.816 14.208-40.608 30.816-79.584 30.816-68.192 0-123.808-56.384-123.808-126.4 0-69.792 55.616-126.4 123.808-126.4 79.2 0 108.8 56.992 113.6 86.208h-113.792v68.8h188.8c2.016-10.016 3.2-20.192 3.2-33.184 0-114.208-76.608-195.2-192-195.2zM768 411.616h-58.016v-58.016h-58.4v58.016h-58.016v58.4h58.016v58.016h58.4v-58.016h58.016v-58.4z" />
<glyph unicode="&#xe941;" glyph-name="facebook_icon-2" d="M992.96 704.512c-0.064 18.336-1.792 36.256-5.024 53.632l0.288-1.824c-3.968 20.864-9.568 41.216-19.552 60.064-10.912 20.608-24.288 38.272-40.064 53.44l-0.064 0.064c-23.712 23.2-53.216 40.544-86.176 49.632l-1.408 0.32c-30.368 8.192-61.44 9.92-92.576 9.856-0.096 0.128-0.16 0.288-0.192 0.48v0h-472.544c0-0.16 0-0.32 0-0.48-17.728-0.32-35.456-0.192-53.088-2.368-21.024-2.272-40.192-6.752-58.432-13.28l1.76 0.544c-29.568-11.104-54.752-27.936-75.2-49.312l-0.064-0.064c-23.392-23.744-40.864-53.376-49.984-86.496l-0.32-1.408c-8.064-30.144-9.824-60.896-9.856-91.84l-0.32-474.464c0.576-21.408 0.768-43.008 4.352-64.224 3.84-22.528 9.312-44.448 19.744-64.896 14.4-27.968 33.888-51.392 57.504-69.792l0.448-0.352c16.512-13.248 35.744-23.936 56.64-31.040l1.312-0.384c30.976-9.984 62.912-13.824 95.328-14.016 20.224-0.128 40.416-0.64 60.672-0.544 72.608 0.32 145.184 0 217.792 0v322.016h-108.288v129.472h108.32v92.768s-7.808 154.112 144.064 166.4h115.008v-117.248h-83.776s-35.712-6.752-41.376-40.224v-99.392h119.488l-13.408-123.968h-108.288v-329.728q45.6 0.224 91.232 0.768c20.736 0.48 40.672 2.688 60.032 6.496l-2.208-0.352c37.632 6.784 70.592 23.488 96.992 47.296l-0.192-0.16c32.32 28.832 54.144 64.096 63.968 106.688 6.464 27.84 8.064 56.064 8.32 84.384v5.664c-0.032 2.176-0.864 481.472-0.928 487.808z" />
<glyph unicode="&#xe942;" glyph-name="facebook_icon-3" d="M510.048-64v0zM513.664-64v0zM508.48-64h-0.032zM515.296-64h-0.032zM506.976-63.968v0zM516.96-63.968v0zM518.624-63.968v0zM505.056-63.968v0zM520.256-63.936v0zM503.456-63.936v0zM521.92-63.904v0zM501.952-63.904v0zM500.064-63.872v0zM523.552-63.872h-0.032zM498.432-63.808v0zM525.216-63.84h-0.032zM526.848-63.776h-0.416l0.64 0.032h-0.224zM496.928-63.776l0.64-0.032h-0.64zM495.488-63.744v0zM528.48-63.744v0zM530.144-63.68v0zM493.408-63.68v0zM491.904-63.616l0.736-0.032h-0.736zM531.776-63.616h-0.416l0.736 0.032h-0.32zM490.432-63.552l0.704-0.032-0.544 0.032h-0.16zM533.408-63.552l-0.544-0.032 0.704 0.032h-0.16zM488.352-63.456l0.768-0.032h-0.192l-0.576 0.032zM535.072-63.488h-0.192l0.768 0.032-0.576-0.032zM486.88-63.392l0.8-0.032h-0.384l-0.416 0.032zM536.704-63.424h-0.384l0.8 0.032-0.416-0.032zM485.44-63.328l0.8-0.032-0.544 0.032h-0.224zM538.336-63.328l-0.544-0.032 0.8 0.032h-0.224zM539.968-63.264l-0.736-0.032 0.64 0.032 0.768 0.032-0.672-0.032zM484.128-63.264l0.64-0.032-0.736 0.032-0.672 0.032 0.768-0.032zM541.6-63.168v0zM481.92-63.136v0zM480.48-63.040l0.8-0.064-0.512 0.032-0.288 0.032zM543.232-63.072l-0.512-0.032 0.8 0.064-0.288-0.032zM479.104-62.944l0.736-0.032-1.344 0.064 0.64-0.032zM544.864-62.976l-0.672-0.032 1.376 0.096-0.672-0.032zM546.496-62.848h-0.256l0.768 0.064-0.544-0.032zM476.992-62.816v0zM475.552-62.72l0.768-0.064-0.416 0.032-0.352 0.032zM548.128-62.752l-0.416-0.032 0.768 0.064-0.352-0.032zM474.112-62.624l0.704-0.064-0.544 0.032h-0.16zM549.76-62.624l-0.544-0.032 0.704 0.064h-0.16zM472.16-62.464l0.608-0.032h-0.16l-0.448 0.032zM551.36-62.496h-0.16l0.608 0.032-0.48-0.032zM552.992-62.368l-0.288-0.032 0.608 0.064-0.32-0.032zM470.688-62.336l0.608-0.064-0.288 0.032-0.32 0.032zM469.216-62.24l0.544-0.032-0.384 0.032h-0.16zM554.624-62.24l-0.384-0.032 0.544 0.032h-0.16zM467.648-62.112v0zM556.224-62.112v0zM557.856-61.984h-0.16l0.352 0.032-0.224-0.032zM465.92-61.952l0.352-0.032h-0.16l-0.224 0.032zM464.416-61.824l0.256-0.032h-0.256zM559.456-61.824h-0.16l0.256 0.032h-0.096zM432-57.76c-244.64 38.464-432 250.4-432 505.76 0 282.592 229.408 512 512 512s512-229.408 512-512c0-255.36-187.36-467.328-432-505.76v357.76h119.296l22.688 148h-142.016v96.032c0 40.48 19.84 79.968 83.424 79.968h64.576v126.016c0 0-58.592 10.016-114.624 10.016-116.96 0-193.376-70.88-193.376-199.2v-112.8h-130.016v-148h130.016v-357.76z" />
<glyph unicode="&#xe943;" glyph-name="facebook_icon-4" d="M512 866.848c-245.632 0-444.768-199.168-444.768-444.768 0-245.632 199.136-444.736 444.768-444.736s444.768 199.104 444.768 444.736c0 245.6-199.168 444.768-444.768 444.768zM629.728 423.936h-77.024c0-123.072 0-274.688 0-274.688h-114.144c0 0 0 150.048 0 274.688h-54.304v96.96h54.304v62.848c0 44.96 21.344 115.168 115.232 115.168l84.544-0.32v-94.208c0 0-51.392 0-61.376 0-10.016 0-24.192-4.992-24.192-26.4v-57.12h87.040l-10.016-96.96z" />
<glyph unicode="&#xe944;" glyph-name="facebook_icon-5" d="M730.24 567.36h-138.080v90.56c0 34.016 22.528 41.952 38.432 41.952 15.84 0 97.44 0 97.44 0v149.504l-134.208 0.512c-148.992 0-182.88-111.52-182.88-182.88v-99.68h-86.144v-154.080h86.144c0-197.728 0-435.968 0-435.968h181.216c0 0 0 240.576 0 435.968h122.272l15.808 154.080z" />
<glyph unicode="&#xe947;" glyph-name="facebook_icon-7" d="M967.52 960h-911.008c-31.2 0-56.48-25.312-56.48-56.48v-911.008c0-31.232 25.312-56.48 56.48-56.48h490.4v396.544h-133.504v154.496h133.504v114.144c0 132.224 80.8 204.16 198.784 204.16 56.544 0 105.12-4.128 119.296-6.016v-138.24h-81.952c-64 0-76.448-30.752-76.448-75.552v-98.592h152.928l-19.84-154.88h-133.088v-396.032h260.896c31.264 0 56.544 25.248 56.544 56.48v911.008c0 31.2-25.248 56.48-56.48 56.48z" />
<glyph unicode="&#xe948;" glyph-name="facebook_icon-8" d="M853.92 910.4h-692.48c-35.968 0-70.496-14.304-95.904-39.744s-39.744-59.936-39.744-95.904v-692.48c0-35.968 14.304-70.496 39.744-95.904s59.936-39.744 95.904-39.744h315.136v351.776h-119.136v137.216h119.136v101.088c0 57.28 15.84 101.792 47.52 133.408 31.68 31.68 74.624 47.584 128.896 47.584 54.336 0 89.504-2.112 105.6-6.080v-122.144h-72.416c-26.144 0-43.968-5.536-53.536-16.64-9.504-11.008-14.272-27.648-14.272-49.76v-87.456h135.712l-18.080-137.216h-117.632v-351.776h235.52c35.968 0 70.496 14.304 95.904 39.744s39.744 59.936 39.744 95.904v692.48c0 35.968-14.304 70.496-39.744 95.904s-59.936 39.744-95.904 39.744z" />
<glyph unicode="&#xe949;" glyph-name="facebook_icon-9" d="M898.88 960c69.056 0 125.12-56.064 125.12-125.12v-773.792c0-69.056-56.064-125.12-125.12-125.12h-212.928v385.824h133.184l25.344 165.248h-158.528v107.232c0 45.216 22.144 89.28 93.152 89.28h72.096v140.672c0 0-65.408 11.168-127.968 11.168-130.592 0-215.904-79.136-215.904-222.4v-125.952h-145.152v-165.248h145.152v-385.824h-382.208c-69.056 0-125.12 56.064-125.12 125.12v773.792c0 69.056 56.064 125.12 125.12 125.12h773.792z" />
<glyph unicode="&#xe94a;" glyph-name="facebook_icon-10" d="M748.48 388.352l28.224 183.936h-176.48v119.36c0 50.304 24.64 99.36 103.68 99.36h80.224v156.576c0 0-72.8 12.416-142.432 12.416-145.344 0-240.32-88.096-240.32-247.552v-140.192h-161.568v-183.936h161.568v-444.608c32.384-5.088 65.6-7.744 99.424-7.744s67.008 2.656 99.424 7.744v444.608h148.256z" />
<glyph unicode="&#xe94b;" glyph-name="facebook_icon-11" horiz-adv-x="608" d="M512.768 776.96h100.192v182.944h-182.080c-15.168 0.64-200.352 4.192-248.352-178.848-0.704-1.92-16.032-45.44-16.032-147.104l-166.496-0.48v-191.872l166.72 0.48v-506.048h254.656v505.632h168.544v192.352h-168.544v60.544c0 37.6 15.84 82.432 91.392 82.432zM547.776 591.872v-108.096h-168.544v-505.632h-170.368v506.176l-166.72-0.48v107.616l167.136 0.48-0.416 21.44c-2.176 107.68 13.152 152.992 13.856 155.168 41.408 157.632 199.584 149.696 206.368 149.28l141.76-0.032v-98.656h-58.080c-98.464 0-133.536-64.352-133.536-124.576v-102.656h168.544z" />
<glyph unicode="&#xe94c;" glyph-name="facebook_icon-12" d="M576 576v76.192c0 34.4 7.616 51.808 60.992 51.808h67.008v128h-111.808c-136.992 0-182.208-62.816-182.208-170.592v-85.408h-90.016v-128h90.016v-384h165.984v384h112.8l15.2 128h-128zM660.384 480h-116.384v-384h-102.016v384h-90.016v64h90.016v117.408c0 48.992 10.816 82.4 31.008 103.584 22.4 24 62.208 35.008 119.2 35.008h79.808v-64h-35.008c-24 0-55.008-2.208-74.208-23.392-16.192-18.016-18.784-40.192-18.784-60.192v-108.384h124l-7.616-64z" />
<glyph unicode="&#xe950;" d="M512-64c282.784 0 512 229.216 512 512s-229.216 512-512 512c-282.784 0-512-229.216-512-512s229.216-512 512-512z" />
<glyph unicode="&#xe951;" d="M434.56 152.512v295.52h-60.064v97.952h60.064v59.232c0 79.904 23.904 137.504 111.36 137.504h104.064v-97.76h-73.28c-36.704 0-45.056-24.384-45.056-49.92v-49.088h112.928l-15.424-97.952h-97.536v-295.52h-97.088z" />
</font>
</defs>
</svg>
